<?xml version="1.0" encoding="UTF-8"?>
<svg id="Layer_2" data-name="Layer 2" xmlns="http://www.w3.org/2000/svg" viewBox="0 0 98 98">
  <defs>
    <style>
      .cls-1 {
        fill: #2ae8b2;
        stroke: #2ae8b2;
        stroke-miterlimit: 10;
        stroke-width: 2px;
      }
    </style>
  </defs>
  <g id="Layer_1-2" data-name="Layer 1">
    <path class="cls-1" d="M81,64.99c8.83,0,15.99-7.16,15.99-15.99,0-8.84-7.16-16-16-16s-16-7.16-15.99-15.99c0-8.84-7.16-16-16-16s-16,7.16-15.99,15.99c0,8.84-7.16,16-16,16-8.84,0-16,7.16-16,16,0,8.84,7.16,16,16,16,8.83,0,15.99,7.16,15.99,15.99,0,8.84,7.16,16,16,16s16-7.16,16-16c0-8.84,7.16-16,16-16ZM49,64.99c-8.84,0-16-7.16-15.99-15.99,0-8.84,7.16-16,16-16,8.82,0,15.99,7.16,15.99,15.99,0,8.84-7.16,16-16,16Z"/>
  </g>
</svg>