<?xml version="1.0" encoding="UTF-8"?>
<svg id="Layer_2" data-name="Layer 2" xmlns="http://www.w3.org/2000/svg" viewBox="0 0 93 104.89">
  <defs>
    <style>
      .cls-1 {
        fill: #2ae8b2;
        stroke: #fff;
        stroke-miterlimit: 10;
        stroke-width: 5px;
      }
    </style>
  </defs>
  <g id="Layer_1-2" data-name="Layer 1">
    <path class="cls-1" d="M29.82,29.82c6.25,6.25,6.25,16.38,0,22.63-6.25,6.25-6.25,16.38,0,22.63,6.25,6.25,6.25,16.38,0,22.63-6.25,6.25-16.38,6.25-22.63,0-6.25-6.25-6.25-16.38,0-22.63,6.25-6.25,6.25-16.38,0-22.63-6.25-6.25-6.25-16.38,0-22.63s16.38-6.25,22.63,0Z"/>
    <path class="cls-1" d="M85.82,29.82c6.25,6.25,6.25,16.38,0,22.63-6.25,6.25-6.25,16.38,0,22.63,6.25,6.25,6.25,16.38,0,22.63-6.25,6.25-16.38,6.25-22.63,0-6.25-6.25-6.25-16.38,0-22.63,6.25-6.25,6.25-16.38,0-22.63-6.25-6.25-6.25-16.38,0-22.63s16.38-6.25,22.63,0Z"/>
    <path class="cls-1" d="M57.51,7.19c6.25,6.25,6.25,16.38,0,22.63-6.25,6.25-6.25,16.38,0,22.63s6.25,16.38,0,22.63-16.38,6.25-22.63,0c-6.25-6.25-6.25-16.38,0-22.63,6.25-6.25,6.25-16.38,0-22.63-6.25-6.25-6.25-16.38,0-22.63,6.25-6.25,16.38-6.25,22.63,0Z"/>
  </g>
</svg>