<?xml version="1.0" encoding="UTF-8"?>
<svg id="Layer_2" data-name="Layer 2" xmlns="http://www.w3.org/2000/svg" viewBox="0 0 801 289">
  <defs>
    <style>
      .cls-1 {
        fill: #000;
        stroke: #fff;
        stroke-miterlimit: 10;
      }
    </style>
  </defs>
  <g id="Layer_1-2" data-name="Layer 1">
    <path class="cls-1" d="M64.5,144.5c0,8.84,7.16,16,16,16s16,7.16,16,16-7.16,16-16,16-16,7.16-16,16,7.16,16,16,16,16,7.16,16,16-7.16,16-16,16-16,7.16-16,16-7.16,16-16,16-16-7.16-16-16,7.16-16,16-16,16-7.16,16-16-7.16-16-16-16-16-7.16-16-16,7.16-16,16-16,16-7.16,16-16-7.16-16-16-16-16-7.16-16-16,7.16-16,16-16,16-7.16,16-16-7.16-16-16-16-16-7.16-16-16,7.16-16,16-16,16-7.16,16-16-7.16-16-16-16-16-7.16-16-16S39.66.5,48.5.5s16,7.16,16,16,7.16,16,16,16,16,7.16,16,16-7.16,16-16,16-16,7.16-16,16,7.16,16,16,16,16,7.16,16,16-7.16,16-16,16-16,7.16-16,16Z"/>
    <path class="cls-1" d="M224.5,144.5c0,8.84,7.16,16,16,16s16,7.16,16,16-7.16,16-16,16-16,7.16-16,16,7.16,16,16,16,16,7.16,16,16-7.16,16-16,16-16,7.16-16,16-7.16,16-16,16-16-7.16-16-16,7.16-16,16-16,16-7.16,16-16-7.16-16-16-16-16-7.16-16-16,7.16-16,16-16,16-7.16,16-16-7.16-16-16-16-16-7.16-16-16,7.16-16,16-16,16-7.16,16-16-7.16-16-16-16-16-7.16-16-16,7.16-16,16-16,16-7.16,16-16-7.16-16-16-16-16-7.16-16-16S199.66.5,208.5.5s16,7.16,16,16,7.16,16,16,16,16,7.16,16,16-7.16,16-16,16-16,7.16-16,16,7.16,16,16,16,16,7.16,16,16-7.16,16-16,16-16,7.16-16,16Z"/>
    <path class="cls-1" d="M288.5,144.5c0,8.84,7.16,16,16,16s16,7.16,16,16-7.16,16-16,16-16,7.16-16,16,7.16,16,16,16,16,7.16,16,16-7.16,16-16,16-16,7.16-16,16-7.16,16-16,16-16-7.16-16-16,7.16-16,16-16,16-7.16,16-16-7.16-16-16-16-16-7.16-16-16,7.16-16,16-16,16-7.16,16-16-7.16-16-16-16-16-7.16-16-16,7.16-16,16-16,16-7.16,16-16-7.16-16-16-16-16-7.16-16-16,7.16-16,16-16,16-7.16,16-16-7.16-16-16-16-16-7.16-16-16,7.16-16,16-16,16,7.16,16,16,7.16,16,16,16,16,7.16,16,16-7.16,16-16,16-16,7.16-16,16,7.16,16,16,16,16,7.16,16,16-7.16,16-16,16-16,7.16-16,16Z"/>
    <circle class="cls-1" cx="16.5" cy="48.5" r="16"/>
    <circle class="cls-1" cx="16.5" cy="112.5" r="16"/>
    <circle class="cls-1" cx="16.5" cy="176.5" r="16"/>
    <circle class="cls-1" cx="16.5" cy="240.5" r="16"/>
    <path class="cls-1" d="M32.5,144.5c0,8.84,7.16,16,16,16s16,7.16,16,16-7.16,16-16,16-16,7.16-16,16,7.16,16,16,16,16,7.16,16,16-7.16,16-16,16-16,7.16-16,16-7.16,16-16,16-16-7.16-16-16,7.16-16,16-16,16-7.16,16-16-7.16-16-16-16S.5,217.34.5,208.5s7.16-16,16-16,16-7.16,16-16-7.16-16-16-16S.5,153.34.5,144.5s7.16-16,16-16,16-7.16,16-16-7.16-16-16-16S.5,89.34.5,80.5s7.16-16,16-16,16-7.16,16-16-7.16-16-16-16S.5,25.34.5,16.5,7.66.5,16.5.5s16,7.16,16,16,7.16,16,16,16,16,7.16,16,16-7.16,16-16,16-16,7.16-16,16,7.16,16,16,16,16,7.16,16,16-7.16,16-16,16-16,7.16-16,16Z"/>
    <path class="cls-1" d="M96.5,144.5c0,8.84,7.16,16,16,16s16,7.16,16,16-7.16,16-16,16-16,7.16-16,16,7.16,16,16,16,16,7.16,16,16-7.16,16-16,16-16,7.16-16,16-7.16,16-16,16-16-7.16-16-16,7.16-16,16-16,16-7.16,16-16-7.16-16-16-16-16-7.16-16-16,7.16-16,16-16,16-7.16,16-16-7.16-16-16-16-16-7.16-16-16,7.16-16,16-16,16-7.16,16-16-7.16-16-16-16-16-7.16-16-16,7.16-16,16-16,16-7.16,16-16-7.16-16-16-16-16-7.16-16-16S71.66.5,80.5.5s16,7.16,16,16,7.16,16,16,16,16,7.16,16,16-7.16,16-16,16-16,7.16-16,16,7.16,16,16,16,16,7.16,16,16-7.16,16-16,16-16,7.16-16,16Z"/>
    <path class="cls-1" d="M192.5,144.5c0,8.84,7.16,16,16,16s16,7.16,16,16-7.16,16-16,16-16,7.16-16,16,7.16,16,16,16,16,7.16,16,16-7.16,16-16,16-16,7.16-16,16-7.16,16-16,16-16-7.16-16-16,7.16-16,16-16,16-7.16,16-16-7.16-16-16-16-16-7.16-16-16,7.16-16,16-16,16-7.16,16-16-7.16-16-16-16-16-7.16-16-16,7.16-16,16-16,16-7.16,16-16-7.16-16-16-16-16-7.16-16-16,7.16-16,16-16,16-7.16,16-16-7.16-16-16-16-16-7.16-16-16S167.66.5,176.5.5s16,7.16,16,16,7.16,16,16,16,16,7.16,16,16-7.16,16-16,16-16,7.16-16,16,7.16,16,16,16,16,7.16,16,16-7.16,16-16,16-16,7.16-16,16Z"/>
    <path class="cls-1" d="M128.5,144.5c0,8.84,7.16,16,16,16s16,7.16,16,16-7.16,16-16,16-16,7.16-16,16,7.16,16,16,16,16,7.16,16,16-7.16,16-16,16-16,7.16-16,16-7.16,16-16,16-16-7.16-16-16,7.16-16,16-16,16-7.16,16-16-7.16-16-16-16-16-7.16-16-16,7.16-16,16-16,16-7.16,16-16-7.16-16-16-16-16-7.16-16-16,7.16-16,16-16,16-7.16,16-16-7.16-16-16-16-16-7.16-16-16,7.16-16,16-16,16-7.16,16-16-7.16-16-16-16-16-7.16-16-16S103.66.5,112.5.5s16,7.16,16,16,7.16,16,16,16,16,7.16,16,16-7.16,16-16,16-16,7.16-16,16,7.16,16,16,16,16,7.16,16,16-7.16,16-16,16-16,7.16-16,16Z"/>
    <path class="cls-1" d="M160.5,144.5c0,8.84,7.16,16,16,16s16,7.16,16,16-7.16,16-16,16-16,7.16-16,16,7.16,16,16,16,16,7.16,16,16-7.16,16-16,16-16,7.16-16,16-7.16,16-16,16-16-7.16-16-16,7.16-16,16-16,16-7.16,16-16-7.16-16-16-16-16-7.16-16-16,7.16-16,16-16,16-7.16,16-16-7.16-16-16-16-16-7.16-16-16,7.16-16,16-16,16-7.16,16-16-7.16-16-16-16-16-7.16-16-16,7.16-16,16-16,16-7.16,16-16-7.16-16-16-16-16-7.16-16-16S135.66.5,144.5.5s16,7.16,16,16,7.16,16,16,16,16,7.16,16,16-7.16,16-16,16-16,7.16-16,16,7.16,16,16,16,16,7.16,16,16-7.16,16-16,16-16,7.16-16,16Z"/>
    <path class="cls-1" d="M256.5,144.5c0,8.84,7.16,16,16,16s16,7.16,16,16-7.16,16-16,16-16,7.16-16,16,7.16,16,16,16,16,7.16,16,16-7.16,16-16,16-16,7.16-16,16-7.16,16-16,16-16-7.16-16-16,7.16-16,16-16,16-7.16,16-16-7.16-16-16-16-16-7.16-16-16,7.16-16,16-16,16-7.16,16-16-7.16-16-16-16-16-7.16-16-16,7.16-16,16-16,16-7.16,16-16-7.16-16-16-16-16-7.16-16-16,7.16-16,16-16,16-7.16,16-16-7.16-16-16-16-16-7.16-16-16S231.66.5,240.5.5s16,7.16,16,16,7.16,16,16,16,16,7.16,16,16-7.16,16-16,16-16,7.16-16,16,7.16,16,16,16,16,7.16,16,16-7.16,16-16,16-16,7.16-16,16Z"/>
    <path class="cls-1" d="M320.5,144.5c0,8.84,7.16,16,16,16s16,7.16,16,16-7.16,16-16,16-16,7.16-16,16,7.16,16,16,16,16,7.16,16,16-7.16,16-16,16-16,7.16-16,16-7.16,16-16,16-16-7.16-16-16,7.16-16,16-16,16-7.16,16-16-7.16-16-16-16-16-7.16-16-16,7.16-16,16-16,16-7.16,16-16-7.16-16-16-16-16-7.16-16-16,7.16-16,16-16,16-7.16,16-16-7.16-16-16-16-16-7.16-16-16,7.16-16,16-16,16-7.16,16-16-7.16-16-16-16-16-7.16-16-16,7.16-16,16-16,16,7.16,16,16,7.16,16,16,16,16,7.16,16,16-7.16,16-16,16-16,7.16-16,16,7.16,16,16,16,16,7.16,16,16-7.16,16-16,16-16,7.16-16,16Z"/>
    <path class="cls-1" d="M352.5,144.5c0,8.84,7.16,16,16,16s16,7.16,16,16-7.16,16-16,16-16,7.16-16,16,7.16,16,16,16,16,7.16,16,16-7.16,16-16,16-16,7.16-16,16-7.16,16-16,16-16-7.16-16-16,7.16-16,16-16,16-7.16,16-16-7.16-16-16-16-16-7.16-16-16,7.16-16,16-16,16-7.16,16-16-7.16-16-16-16-16-7.16-16-16,7.16-16,16-16,16-7.16,16-16-7.16-16-16-16-16-7.16-16-16,7.16-16,16-16,16-7.16,16-16-7.16-16-16-16-16-7.16-16-16,7.16-16,16-16,16,7.16,16,16,7.16,16,16,16,16,7.16,16,16-7.16,16-16,16-16,7.16-16,16,7.16,16,16,16,16,7.16,16,16-7.16,16-16,16-16,7.16-16,16Z"/>
    <circle class="cls-1" cx="400.5" cy="16.5" r="16"/>
    <path class="cls-1" d="M448.5,112.5c0,8.84,7.16,16,16,16s16,7.16,16,16-7.16,16-16,16-16,7.16-16,16,7.16,16,16,16,16,7.16,16,16-7.16,16-16,16-16,7.16-16,16,7.16,16,16,16,16,7.16,16,16-7.16,16-16,16-16-7.16-16-16-7.16-16-16-16-16-7.16-16-16,7.16-16,16-16,16-7.16,16-16-7.16-16-16-16-16-7.16-16-16,7.16-16,16-16,16-7.16,16-16-7.16-16-16-16-16-7.16-16-16,7.16-16,16-16,16-7.16,16-16-7.16-16-16-16-16-7.16-16-16,7.16-16,16-16,16-7.16,16-16,7.16-16,16-16,16,7.16,16,16-7.16,16-16,16-16,7.16-16,16,7.16,16,16,16,16,7.16,16,16-7.16,16-16,16-16,7.16-16,16Z"/>
    <path class="cls-1" d="M512.5,112.5c0,8.84,7.16,16,16,16s16,7.16,16,16-7.16,16-16,16-16,7.16-16,16,7.16,16,16,16,16,7.16,16,16-7.16,16-16,16-16,7.16-16,16,7.16,16,16,16,16,7.16,16,16-7.16,16-16,16-16-7.16-16-16-7.16-16-16-16-16-7.16-16-16,7.16-16,16-16,16-7.16,16-16-7.16-16-16-16-16-7.16-16-16,7.16-16,16-16,16-7.16,16-16-7.16-16-16-16-16-7.16-16-16,7.16-16,16-16,16-7.16,16-16-7.16-16-16-16-16-7.16-16-16,7.16-16,16-16,16-7.16,16-16,7.16-16,16-16,16,7.16,16,16-7.16,16-16,16-16,7.16-16,16,7.16,16,16,16,16,7.16,16,16-7.16,16-16,16-16,7.16-16,16Z"/>
    <path class="cls-1" d="M576.5,112.5c0,8.84,7.16,16,16,16s16,7.16,16,16-7.16,16-16,16-16,7.16-16,16,7.16,16,16,16,16,7.16,16,16-7.16,16-16,16-16,7.16-16,16,7.16,16,16,16,16,7.16,16,16-7.16,16-16,16-16-7.16-16-16-7.16-16-16-16-16-7.16-16-16,7.16-16,16-16,16-7.16,16-16-7.16-16-16-16-16-7.16-16-16,7.16-16,16-16,16-7.16,16-16-7.16-16-16-16-16-7.16-16-16,7.16-16,16-16,16-7.16,16-16-7.16-16-16-16-16-7.16-16-16,7.16-16,16-16,16-7.16,16-16,7.16-16,16-16,16,7.16,16,16-7.16,16-16,16-16,7.16-16,16,7.16,16,16,16,16,7.16,16,16-7.16,16-16,16-16,7.16-16,16Z"/>
    <path class="cls-1" d="M640.5,112.5c0,8.84,7.16,16,16,16s16,7.16,16,16-7.16,16-16,16-16,7.16-16,16,7.16,16,16,16,16,7.16,16,16-7.16,16-16,16-16,7.16-16,16,7.16,16,16,16,16,7.16,16,16-7.16,16-16,16-16-7.16-16-16-7.16-16-16-16-16-7.16-16-16,7.16-16,16-16,16-7.16,16-16-7.16-16-16-16-16-7.16-16-16,7.16-16,16-16,16-7.16,16-16-7.16-16-16-16-16-7.16-16-16,7.16-16,16-16,16-7.16,16-16-7.16-16-16-16-16-7.16-16-16,7.16-16,16-16,16-7.16,16-16,7.16-16,16-16,16,7.16,16,16-7.16,16-16,16-16,7.16-16,16,7.16,16,16,16,16,7.16,16,16-7.16,16-16,16-16,7.16-16,16Z"/>
    <path class="cls-1" d="M672.5,112.5c0,8.84,7.16,16,16,16s16,7.16,16,16-7.16,16-16,16-16,7.16-16,16,7.16,16,16,16,16,7.16,16,16-7.16,16-16,16-16,7.16-16,16,7.16,16,16,16,16,7.16,16,16-7.16,16-16,16-16-7.16-16-16-7.16-16-16-16-16-7.16-16-16,7.16-16,16-16,16-7.16,16-16-7.16-16-16-16-16-7.16-16-16,7.16-16,16-16,16-7.16,16-16-7.16-16-16-16-16-7.16-16-16,7.16-16,16-16,16-7.16,16-16-7.16-16-16-16-16-7.16-16-16,7.16-16,16-16,16-7.16,16-16,7.16-16,16-16,16,7.16,16,16-7.16,16-16,16-16,7.16-16,16,7.16,16,16,16,16,7.16,16,16-7.16,16-16,16-16,7.16-16,16Z"/>
    <path class="cls-1" d="M704.5,112.5c0,8.84,7.16,16,16,16s16,7.16,16,16-7.16,16-16,16-16,7.16-16,16,7.16,16,16,16,16,7.16,16,16-7.16,16-16,16-16,7.16-16,16,7.16,16,16,16,16,7.16,16,16-7.16,16-16,16-16-7.16-16-16-7.16-16-16-16-16-7.16-16-16,7.16-16,16-16,16-7.16,16-16-7.16-16-16-16-16-7.16-16-16,7.16-16,16-16,16-7.16,16-16-7.16-16-16-16-16-7.16-16-16,7.16-16,16-16,16-7.16,16-16-7.16-16-16-16-16-7.16-16-16,7.16-16,16-16,16-7.16,16-16,7.16-16,16-16,16,7.16,16,16-7.16,16-16,16-16,7.16-16,16,7.16,16,16,16,16,7.16,16,16-7.16,16-16,16-16,7.16-16,16Z"/>
    <path class="cls-1" d="M736.5,112.5c0,8.84,7.16,16,16,16s16,7.16,16,16-7.16,16-16,16-16,7.16-16,16,7.16,16,16,16,16,7.16,16,16-7.16,16-16,16-16,7.16-16,16,7.16,16,16,16,16,7.16,16,16-7.16,16-16,16-16-7.16-16-16-7.16-16-16-16-16-7.16-16-16,7.16-16,16-16,16-7.16,16-16-7.16-16-16-16-16-7.16-16-16,7.16-16,16-16,16-7.16,16-16-7.16-16-16-16-16-7.16-16-16,7.16-16,16-16,16-7.16,16-16-7.16-16-16-16-16-7.16-16-16,7.16-16,16-16,16-7.16,16-16,7.16-16,16-16,16,7.16,16,16-7.16,16-16,16-16,7.16-16,16,7.16,16,16,16,16,7.16,16,16-7.16,16-16,16-16,7.16-16,16Z"/>
    <circle class="cls-1" cx="400.5" cy="272.5" r="16"/>
    <path class="cls-1" d="M432.5,96.5c8.84,0,16-7.16,16-16s-7.16-16-16-16-16-7.16-16-16,7.16-16,16-16,16-7.16,16-16-7.16-16-16-16-16,7.16-16,16-7.16,16-16,16-16-7.16-16-16-7.16-16-16-16-16,7.16-16,16,7.16,16,16,16,16,7.16,16,16-7.16,16-16,16-16,7.16-16,16,7.16,16,16,16,16,7.16,16,16-7.16,16-16,16-16,7.16-16,16,7.16,16,16,16,16,7.16,16,16-7.16,16-16,16-16,7.16-16,16,7.16,16,16,16,16,7.16,16,16-7.16,16-16,16-16,7.16-16,16,7.16,16,16,16,16-7.16,16-16,7.16-16,16-16,16,7.16,16,16,7.16,16,16,16,16-7.16,16-16-7.16-16-16-16-16-7.16-16-16,7.16-16,16-16,16-7.16,16-16-7.16-16-16-16-16-7.16-16-16,7.16-16,16-16,16-7.16,16-16-7.16-16-16-16-16-7.16-16-16,7.16-16,16-16ZM400.5,224.5c-8.84,0-16-7.16-16-16s7.16-16,16-16,16,7.16,16,16-7.16,16-16,16ZM400.5,160.5c-8.84,0-16-7.16-16-16s7.16-16,16-16,16,7.16,16,16-7.16,16-16,16ZM400.5,96.5c-8.84,0-16-7.16-16-16s7.16-16,16-16,16,7.16,16,16-7.16,16-16,16Z"/>
    <circle class="cls-1" cx="400.5" cy="80.5" r="16"/>
    <circle class="cls-1" cx="400.5" cy="144.5" r="16"/>
    <circle class="cls-1" cx="400.5" cy="208.5" r="16"/>
    <path class="cls-1" d="M480.5,112.5c0,8.84,7.16,16,16,16s16,7.16,16,16-7.16,16-16,16-16,7.16-16,16,7.16,16,16,16,16,7.16,16,16-7.16,16-16,16-16,7.16-16,16,7.16,16,16,16,16,7.16,16,16-7.16,16-16,16-16-7.16-16-16-7.16-16-16-16-16-7.16-16-16,7.16-16,16-16,16-7.16,16-16-7.16-16-16-16-16-7.16-16-16,7.16-16,16-16,16-7.16,16-16-7.16-16-16-16-16-7.16-16-16,7.16-16,16-16,16-7.16,16-16-7.16-16-16-16-16-7.16-16-16,7.16-16,16-16,16-7.16,16-16,7.16-16,16-16,16,7.16,16,16-7.16,16-16,16-16,7.16-16,16,7.16,16,16,16,16,7.16,16,16-7.16,16-16,16-16,7.16-16,16Z"/>
    <path class="cls-1" d="M544.5,112.5c0,8.84,7.16,16,16,16s16,7.16,16,16-7.16,16-16,16-16,7.16-16,16,7.16,16,16,16,16,7.16,16,16-7.16,16-16,16-16,7.16-16,16,7.16,16,16,16,16,7.16,16,16-7.16,16-16,16-16-7.16-16-16-7.16-16-16-16-16-7.16-16-16,7.16-16,16-16,16-7.16,16-16-7.16-16-16-16-16-7.16-16-16,7.16-16,16-16,16-7.16,16-16-7.16-16-16-16-16-7.16-16-16,7.16-16,16-16,16-7.16,16-16-7.16-16-16-16-16-7.16-16-16,7.16-16,16-16,16-7.16,16-16,7.16-16,16-16,16,7.16,16,16-7.16,16-16,16-16,7.16-16,16,7.16,16,16,16,16,7.16,16,16-7.16,16-16,16-16,7.16-16,16Z"/>
    <circle class="cls-1" cx="784.5" cy="48.5" r="16"/>
    <circle class="cls-1" cx="784.5" cy="112.5" r="16"/>
    <circle class="cls-1" cx="784.5" cy="176.5" r="16"/>
    <circle class="cls-1" cx="784.5" cy="240.5" r="16"/>
    <path class="cls-1" d="M608.5,112.5c0,8.84,7.16,16,16,16s16,7.16,16,16-7.16,16-16,16-16,7.16-16,16,7.16,16,16,16,16,7.16,16,16-7.16,16-16,16-16,7.16-16,16,7.16,16,16,16,16,7.16,16,16-7.16,16-16,16-16-7.16-16-16-7.16-16-16-16-16-7.16-16-16,7.16-16,16-16,16-7.16,16-16-7.16-16-16-16-16-7.16-16-16,7.16-16,16-16,16-7.16,16-16-7.16-16-16-16-16-7.16-16-16,7.16-16,16-16,16-7.16,16-16-7.16-16-16-16-16-7.16-16-16,7.16-16,16-16,16-7.16,16-16,7.16-16,16-16,16,7.16,16,16-7.16,16-16,16-16,7.16-16,16,7.16,16,16,16,16,7.16,16,16-7.16,16-16,16-16,7.16-16,16Z"/>
    <path class="cls-1" d="M768.5,112.5c0,8.84,7.16,16,16,16s16,7.16,16,16-7.16,16-16,16-16,7.16-16,16,7.16,16,16,16,16,7.16,16,16-7.16,16-16,16-16,7.16-16,16,7.16,16,16,16,16,7.16,16,16-7.16,16-16,16-16-7.16-16-16-7.16-16-16-16-16-7.16-16-16,7.16-16,16-16,16-7.16,16-16-7.16-16-16-16-16-7.16-16-16,7.16-16,16-16,16-7.16,16-16-7.16-16-16-16-16-7.16-16-16,7.16-16,16-16,16-7.16,16-16-7.16-16-16-16-16-7.16-16-16,7.16-16,16-16,16-7.16,16-16,7.16-16,16-16,16,7.16,16,16-7.16,16-16,16-16,7.16-16,16,7.16,16,16,16,16,7.16,16,16-7.16,16-16,16-16,7.16-16,16Z"/>
  </g>
</svg>