<?xml version="1.0" encoding="UTF-8"?>
<svg id="Layer_2" data-name="Layer 2" xmlns="http://www.w3.org/2000/svg" viewBox="0 0 1506.95 289.7">
  <defs>
    <style>
      .cls-1 {
        fill: #000;
        stroke: #fff;
        stroke-miterlimit: 10;
      }
    </style>
  </defs>
  <g id="Layer_1-2" data-name="Layer 1">
    <circle class="cls-1" cx="48.5" cy="16.73" r="16"/>
    <path class="cls-1" d="M80.5,96.73c8.84,0,16-7.16,16-16s-7.16-16-16-16-16-7.16-16-16,7.16-16,16-16,16-7.16,16-16S89.34.73,80.5.73s-16,7.16-16,16-7.16,16-16,16-16-7.16-16-16S25.34.73,16.5.73.5,7.89.5,16.73s7.16,16,16,16,16,7.16,16,16-7.16,16-16,16S.5,71.89.5,80.73s7.16,16,16,16,16,7.16,16,16-7.16,16-16,16S.5,135.89.5,144.73s7.16,16,16,16,16,7.16,16,16-7.16,16-16,16S.5,199.89.5,208.73s7.16,16,16,16,16,7.16,16,16-7.16,16-16,16-16,7.16-16,16,7.16,16,16,16,16-7.16,16-16,7.16-16,16-16,16,7.16,16,16,7.16,16,16,16,16-7.16,16-16-7.16-16-16-16-16-7.16-16-16,7.16-16,16-16,16-7.16,16-16-7.16-16-16-16-16-7.16-16-16,7.16-16,16-16,16-7.16,16-16-7.16-16-16-16-16-7.16-16-16,7.16-16,16-16ZM48.5,224.73c-8.84,0-16-7.16-16-16s7.16-16,16-16,16,7.16,16,16-7.16,16-16,16ZM48.5,160.73c-8.84,0-16-7.16-16-16s7.16-16,16-16,16,7.16,16,16-7.16,16-16,16ZM48.5,96.73c-8.84,0-16-7.16-16-16s7.16-16,16-16,16,7.16,16,16-7.16,16-16,16Z"/>
    <circle class="cls-1" cx="176.5" cy="16.73" r="16"/>
    <circle class="cls-1" cx="16.5" cy="48.73" r="16"/>
    <path class="cls-1" d="M208.5,96.73c8.84,0,16-7.16,16-16s-7.16-16-16-16-16-7.16-16-16,7.16-16,16-16,16-7.16,16-16S217.34.73,208.5.73s-16,7.16-16,16-7.16,16-16,16-16-7.16-16-16S153.34.73,144.5.73s-16,7.16-16,16,7.16,16,16,16,16,7.16,16,16-7.16,16-16,16-16,7.16-16,16,7.16,16,16,16,16,7.16,16,16-7.16,16-16,16-16,7.16-16,16,7.16,16,16,16,16,7.16,16,16-7.16,16-16,16-16,7.16-16,16,7.16,16,16,16,16,7.16,16,16-7.16,16-16,16-16,7.16-16,16,7.16,16,16,16,16-7.16,16-16,7.16-16,16-16,16,7.16,16,16,7.16,16,16,16,16-7.16,16-16-7.16-16-16-16-16-7.16-16-16,7.16-16,16-16,16-7.16,16-16-7.16-16-16-16-16-7.16-16-16,7.16-16,16-16,16-7.16,16-16-7.16-16-16-16-16-7.16-16-16,7.16-16,16-16ZM176.5,224.73c-8.84,0-16-7.16-16-16s7.16-16,16-16,16,7.16,16,16-7.16,16-16,16ZM176.5,160.73c-8.84,0-16-7.16-16-16s7.16-16,16-16,16,7.16,16,16-7.16,16-16,16ZM176.5,96.73c-8.84,0-16-7.16-16-16s7.16-16,16-16,16,7.16,16,16-7.16,16-16,16Z"/>
    <circle class="cls-1" cx="240.5" cy="48.73" r="16"/>
    <circle class="cls-1" cx="48.5" cy="80.73" r="16"/>
    <circle class="cls-1" cx="176.5" cy="80.73" r="16"/>
    <circle class="cls-1" cx="48.5" cy="144.73" r="16"/>
    <circle class="cls-1" cx="176.5" cy="144.73" r="16"/>
    <circle class="cls-1" cx="16.5" cy="112.73" r="16"/>
    <circle class="cls-1" cx="16.5" cy="176.73" r="16"/>
    <path class="cls-1" d="M144.5,128.73c8.84,0,16-7.16,16-16s-7.16-16-16-16-16-7.16-16-16,7.16-16,16-16,16-7.16,16-16-7.16-16-16-16-16-7.16-16-16S121.34.73,112.5.73s-16,7.16-16,16-7.16,16-16,16-16,7.16-16,16,7.16,16,16,16,16,7.16,16,16-7.16,16-16,16-16,7.16-16,16,7.16,16,16,16,16,7.16,16,16-7.16,16-16,16-16,7.16-16,16,7.16,16,16,16,16,7.16,16,16-7.16,16-16,16-16,7.16-16,16,7.16,16,16,16,16,7.16,16,16,7.16,16,16,16,16-7.16,16-16,7.16-16,16-16,16-7.16,16-16-7.16-16-16-16-16-7.16-16-16,7.16-16,16-16,16-7.16,16-16-7.16-16-16-16-16-7.16-16-16,7.16-16,16-16ZM112.5,32.73c8.84,0,16,7.16,16,16s-7.16,16-16,16-16-7.16-16-16,7.16-16,16-16ZM112.5,256.73c-8.84,0-16-7.16-16-16s7.16-16,16-16,16,7.16,16,16-7.16,16-16,16ZM112.5,192.73c-8.84,0-16-7.16-16-16s7.16-16,16-16,16,7.16,16,16-7.16,16-16,16ZM112.5,128.73c-8.84,0-16-7.16-16-16s7.16-16,16-16,16,7.16,16,16-7.16,16-16,16Z"/>
    <circle class="cls-1" cx="112.5" cy="48.73" r="16"/>
    <circle class="cls-1" cx="112.5" cy="112.73" r="16"/>
    <circle class="cls-1" cx="112.5" cy="176.73" r="16"/>
    <circle class="cls-1" cx="48.5" cy="208.73" r="16"/>
    <circle class="cls-1" cx="176.5" cy="208.73" r="16"/>
    <circle class="cls-1" cx="16.5" cy="240.73" r="16"/>
    <circle class="cls-1" cx="112.5" cy="240.73" r="16"/>
    <circle class="cls-1" cx="48.5" cy="272.73" r="16"/>
    <circle class="cls-1" cx="176.5" cy="272.73" r="16"/>
    <path class="cls-1" d="M272.5,128.73c8.84,0,16-7.16,16-16s-7.16-16-16-16-16-7.16-16-16,7.16-16,16-16,16-7.16,16-16-7.16-16-16-16-16-7.16-16-16S249.34.73,240.5.73s-16,7.16-16,16-7.16,16-16,16-16,7.16-16,16,7.16,16,16,16,16,7.16,16,16-7.16,16-16,16-16,7.16-16,16,7.16,16,16,16,16,7.16,16,16-7.16,16-16,16-16,7.16-16,16,7.16,16,16,16,16,7.16,16,16-7.16,16-16,16-16,7.16-16,16,7.16,16,16,16,16,7.16,16,16,7.16,16,16,16,16-7.16,16-16,7.16-16,16-16,16-7.16,16-16-7.16-16-16-16-16-7.16-16-16,7.16-16,16-16,16-7.16,16-16-7.16-16-16-16-16-7.16-16-16,7.16-16,16-16ZM240.5,32.73c8.84,0,16,7.16,16,16s-7.16,16-16,16-16-7.16-16-16,7.16-16,16-16ZM240.5,256.73c-8.84,0-16-7.16-16-16s7.16-16,16-16,16,7.16,16,16-7.16,16-16,16ZM240.5,192.73c-8.84,0-16-7.16-16-16s7.16-16,16-16,16,7.16,16,16-7.16,16-16,16ZM240.5,128.73c-8.84,0-16-7.16-16-16s7.16-16,16-16,16,7.16,16,16-7.16,16-16,16Z"/>
    <circle class="cls-1" cx="240.5" cy="112.73" r="16"/>
    <circle class="cls-1" cx="240.5" cy="176.73" r="16"/>
    <circle class="cls-1" cx="240.5" cy="240.73" r="16"/>
    <circle class="cls-1" cx="304.8" cy="17" r="16"/>
    <path class="cls-1" d="M336.8,97c8.84,0,16-7.16,16-16s-7.16-16-16-16-16-7.16-16-16,7.16-16,16-16,16-7.16,16-16-7.16-16-16-16-16,7.16-16,16-7.16,16-16,16-16-7.16-16-16-7.16-16-16-16-16,7.16-16,16,7.16,16,16,16,16,7.16,16,16-7.16,16-16,16-16,7.16-16,16,7.16,16,16,16,16,7.16,16,16-7.16,16-16,16-16,7.16-16,16,7.16,16,16,16,16,7.16,16,16-7.16,16-16,16-16,7.16-16,16,7.16,16,16,16,16,7.16,16,16-7.16,16-16,16-16,7.16-16,16,7.16,16,16,16,16-7.16,16-16,7.16-16,16-16,16,7.16,16,16,7.16,16,16,16,16-7.16,16-16-7.16-16-16-16-16-7.16-16-16,7.16-16,16-16,16-7.16,16-16-7.16-16-16-16-16-7.16-16-16,7.16-16,16-16,16-7.16,16-16-7.16-16-16-16-16-7.16-16-16,7.16-16,16-16ZM304.8,225c-8.84,0-16-7.16-16-16s7.16-16,16-16,16,7.16,16,16-7.16,16-16,16ZM304.8,161c-8.84,0-16-7.16-16-16s7.16-16,16-16,16,7.16,16,16-7.16,16-16,16ZM304.8,97c-8.84,0-16-7.16-16-16s7.16-16,16-16,16,7.16,16,16-7.16,16-16,16Z"/>
    <circle class="cls-1" cx="432.8" cy="17" r="16"/>
    <path class="cls-1" d="M464.8,97c8.84,0,16-7.16,16-16s-7.16-16-16-16-16-7.16-16-16,7.16-16,16-16,16-7.16,16-16-7.16-16-16-16-16,7.16-16,16-7.16,16-16,16-16-7.16-16-16-7.16-16-16-16-16,7.16-16,16,7.16,16,16,16,16,7.16,16,16-7.16,16-16,16-16,7.16-16,16,7.16,16,16,16,16,7.16,16,16-7.16,16-16,16-16,7.16-16,16,7.16,16,16,16,16,7.16,16,16-7.16,16-16,16-16,7.16-16,16,7.16,16,16,16,16,7.16,16,16-7.16,16-16,16-16,7.16-16,16,7.16,16,16,16,16-7.16,16-16,7.16-16,16-16,16,7.16,16,16,7.16,16,16,16,16-7.16,16-16-7.16-16-16-16-16-7.16-16-16,7.16-16,16-16,16-7.16,16-16-7.16-16-16-16-16-7.16-16-16,7.16-16,16-16,16-7.16,16-16-7.16-16-16-16-16-7.16-16-16,7.16-16,16-16ZM432.8,225c-8.84,0-16-7.16-16-16s7.16-16,16-16,16,7.16,16,16-7.16,16-16,16ZM432.8,161c-8.84,0-16-7.16-16-16s7.16-16,16-16,16,7.16,16,16-7.16,16-16,16ZM432.8,97c-8.84,0-16-7.16-16-16s7.16-16,16-16,16,7.16,16,16-7.16,16-16,16Z"/>
    <circle class="cls-1" cx="496.8" cy="49" r="16"/>
    <circle class="cls-1" cx="304.8" cy="81" r="16"/>
    <circle class="cls-1" cx="432.8" cy="81" r="16"/>
    <circle class="cls-1" cx="304.8" cy="145" r="16"/>
    <circle class="cls-1" cx="432.8" cy="145" r="16"/>
    <path class="cls-1" d="M400.8,129c8.84,0,16-7.16,16-16s-7.16-16-16-16-16-7.16-16-16,7.16-16,16-16,16-7.16,16-16-7.16-16-16-16-16-7.16-16-16-7.16-16-16-16-16,7.16-16,16-7.16,16-16,16-16,7.16-16,16,7.16,16,16,16,16,7.16,16,16-7.16,16-16,16-16,7.16-16,16,7.16,16,16,16,16,7.16,16,16-7.16,16-16,16-16,7.16-16,16,7.16,16,16,16,16,7.16,16,16-7.16,16-16,16-16,7.16-16,16,7.16,16,16,16,16,7.16,16,16,7.16,16,16,16,16-7.16,16-16,7.16-16,16-16,16-7.16,16-16-7.16-16-16-16-16-7.16-16-16,7.16-16,16-16,16-7.16,16-16-7.16-16-16-16-16-7.16-16-16,7.16-16,16-16ZM368.8,33c8.84,0,16,7.16,16,16s-7.16,16-16,16-16-7.16-16-16,7.16-16,16-16ZM368.8,257c-8.84,0-16-7.16-16-16s7.16-16,16-16,16,7.16,16,16-7.16,16-16,16ZM368.8,193c-8.84,0-16-7.16-16-16s7.16-16,16-16,16,7.16,16,16-7.16,16-16,16ZM368.8,129c-8.84,0-16-7.16-16-16s7.16-16,16-16,16,7.16,16,16-7.16,16-16,16Z"/>
    <circle class="cls-1" cx="368.8" cy="49" r="16"/>
    <circle class="cls-1" cx="368.8" cy="113" r="16"/>
    <circle class="cls-1" cx="368.8" cy="177" r="16"/>
    <circle class="cls-1" cx="304.8" cy="209" r="16"/>
    <circle class="cls-1" cx="432.8" cy="209" r="16"/>
    <circle class="cls-1" cx="368.8" cy="241" r="16"/>
    <circle class="cls-1" cx="304.8" cy="273" r="16"/>
    <circle class="cls-1" cx="432.8" cy="273" r="16"/>
    <path class="cls-1" d="M528.8,129c8.84,0,16-7.16,16-16s-7.16-16-16-16-16-7.16-16-16,7.16-16,16-16,16-7.16,16-16-7.16-16-16-16-16-7.16-16-16-7.16-16-16-16-16,7.16-16,16-7.16,16-16,16-16,7.16-16,16,7.16,16,16,16,16,7.16,16,16-7.16,16-16,16-16,7.16-16,16,7.16,16,16,16,16,7.16,16,16-7.16,16-16,16-16,7.16-16,16,7.16,16,16,16,16,7.16,16,16-7.16,16-16,16-16,7.16-16,16,7.16,16,16,16,16,7.16,16,16,7.16,16,16,16,16-7.16,16-16,7.16-16,16-16,16-7.16,16-16-7.16-16-16-16-16-7.16-16-16,7.16-16,16-16,16-7.16,16-16-7.16-16-16-16-16-7.16-16-16,7.16-16,16-16ZM496.8,33c8.84,0,16,7.16,16,16s-7.16,16-16,16-16-7.16-16-16,7.16-16,16-16ZM496.8,257c-8.84,0-16-7.16-16-16s7.16-16,16-16,16,7.16,16,16-7.16,16-16,16ZM496.8,193c-8.84,0-16-7.16-16-16s7.16-16,16-16,16,7.16,16,16-7.16,16-16,16ZM496.8,129c-8.84,0-16-7.16-16-16s7.16-16,16-16,16,7.16,16,16-7.16,16-16,16Z"/>
    <circle class="cls-1" cx="496.8" cy="113" r="16"/>
    <circle class="cls-1" cx="496.8" cy="177" r="16"/>
    <circle class="cls-1" cx="496.8" cy="241" r="16"/>
    <circle class="cls-1" cx="561.29" cy="16.92" r="16"/>
    <path class="cls-1" d="M593.29,96.92c8.84,0,16-7.16,16-16s-7.16-16-16-16-16-7.16-16-16,7.16-16,16-16,16-7.16,16-16-7.16-16-16-16-16,7.16-16,16-7.16,16-16,16-16-7.16-16-16-7.16-16-16-16-16,7.16-16,16,7.16,16,16,16,16,7.16,16,16-7.16,16-16,16-16,7.16-16,16,7.16,16,16,16,16,7.16,16,16-7.16,16-16,16-16,7.16-16,16,7.16,16,16,16,16,7.16,16,16-7.16,16-16,16-16,7.16-16,16,7.16,16,16,16,16,7.16,16,16-7.16,16-16,16-16,7.16-16,16,7.16,16,16,16,16-7.16,16-16,7.16-16,16-16,16,7.16,16,16,7.16,16,16,16,16-7.16,16-16-7.16-16-16-16-16-7.16-16-16,7.16-16,16-16,16-7.16,16-16-7.16-16-16-16-16-7.16-16-16,7.16-16,16-16,16-7.16,16-16-7.16-16-16-16-16-7.16-16-16,7.16-16,16-16ZM561.29,224.92c-8.84,0-16-7.16-16-16s7.16-16,16-16,16,7.16,16,16-7.16,16-16,16ZM561.29,160.92c-8.84,0-16-7.16-16-16s7.16-16,16-16,16,7.16,16,16-7.16,16-16,16ZM561.29,96.92c-8.84,0-16-7.16-16-16s7.16-16,16-16,16,7.16,16,16-7.16,16-16,16Z"/>
    <circle class="cls-1" cx="689.29" cy="16.92" r="16"/>
    <path class="cls-1" d="M721.29,96.92c8.84,0,16-7.16,16-16s-7.16-16-16-16-16-7.16-16-16,7.16-16,16-16,16-7.16,16-16-7.16-16-16-16-16,7.16-16,16-7.16,16-16,16-16-7.16-16-16-7.16-16-16-16-16,7.16-16,16,7.16,16,16,16,16,7.16,16,16-7.16,16-16,16-16,7.16-16,16,7.16,16,16,16,16,7.16,16,16-7.16,16-16,16-16,7.16-16,16,7.16,16,16,16,16,7.16,16,16-7.16,16-16,16-16,7.16-16,16,7.16,16,16,16,16,7.16,16,16-7.16,16-16,16-16,7.16-16,16,7.16,16,16,16,16-7.16,16-16,7.16-16,16-16,16,7.16,16,16,7.16,16,16,16,16-7.16,16-16-7.16-16-16-16-16-7.16-16-16,7.16-16,16-16,16-7.16,16-16-7.16-16-16-16-16-7.16-16-16,7.16-16,16-16,16-7.16,16-16-7.16-16-16-16-16-7.16-16-16,7.16-16,16-16ZM689.29,224.92c-8.84,0-16-7.16-16-16s7.16-16,16-16,16,7.16,16,16-7.16,16-16,16ZM689.29,160.92c-8.84,0-16-7.16-16-16s7.16-16,16-16,16,7.16,16,16-7.16,16-16,16ZM689.29,96.92c-8.84,0-16-7.16-16-16s7.16-16,16-16,16,7.16,16,16-7.16,16-16,16Z"/>
    <circle class="cls-1" cx="753.29" cy="48.92" r="16"/>
    <circle class="cls-1" cx="561.29" cy="80.92" r="16"/>
    <circle class="cls-1" cx="689.29" cy="80.92" r="16"/>
    <circle class="cls-1" cx="561.29" cy="144.92" r="16"/>
    <circle class="cls-1" cx="689.29" cy="144.92" r="16"/>
    <path class="cls-1" d="M657.29,128.92c8.84,0,16-7.16,16-16s-7.16-16-16-16-16-7.16-16-16,7.16-16,16-16,16-7.16,16-16-7.16-16-16-16-16-7.16-16-16-7.16-16-16-16-16,7.16-16,16-7.16,16-16,16-16,7.16-16,16,7.16,16,16,16,16,7.16,16,16-7.16,16-16,16-16,7.16-16,16,7.16,16,16,16,16,7.16,16,16-7.16,16-16,16-16,7.16-16,16,7.16,16,16,16,16,7.16,16,16-7.16,16-16,16-16,7.16-16,16,7.16,16,16,16,16,7.16,16,16,7.16,16,16,16,16-7.16,16-16,7.16-16,16-16,16-7.16,16-16-7.16-16-16-16-16-7.16-16-16,7.16-16,16-16,16-7.16,16-16-7.16-16-16-16-16-7.16-16-16,7.16-16,16-16ZM625.29,32.92c8.84,0,16,7.16,16,16s-7.16,16-16,16-16-7.16-16-16,7.16-16,16-16ZM625.29,256.92c-8.84,0-16-7.16-16-16s7.16-16,16-16,16,7.16,16,16-7.16,16-16,16ZM625.29,192.92c-8.84,0-16-7.16-16-16s7.16-16,16-16,16,7.16,16,16-7.16,16-16,16ZM625.29,128.92c-8.84,0-16-7.16-16-16s7.16-16,16-16,16,7.16,16,16-7.16,16-16,16Z"/>
    <circle class="cls-1" cx="625.29" cy="48.92" r="16"/>
    <circle class="cls-1" cx="625.29" cy="112.92" r="16"/>
    <circle class="cls-1" cx="625.29" cy="176.92" r="16"/>
    <circle class="cls-1" cx="561.29" cy="208.92" r="16"/>
    <circle class="cls-1" cx="689.29" cy="208.92" r="16"/>
    <circle class="cls-1" cx="625.29" cy="240.92" r="16"/>
    <circle class="cls-1" cx="561.29" cy="272.92" r="16"/>
    <circle class="cls-1" cx="689.29" cy="272.92" r="16"/>
    <path class="cls-1" d="M785.29,128.92c8.84,0,16-7.16,16-16s-7.16-16-16-16-16-7.16-16-16,7.16-16,16-16,16-7.16,16-16-7.16-16-16-16-16-7.16-16-16-7.16-16-16-16-16,7.16-16,16-7.16,16-16,16-16,7.16-16,16,7.16,16,16,16,16,7.16,16,16-7.16,16-16,16-16,7.16-16,16,7.16,16,16,16,16,7.16,16,16-7.16,16-16,16-16,7.16-16,16,7.16,16,16,16,16,7.16,16,16-7.16,16-16,16-16,7.16-16,16,7.16,16,16,16,16,7.16,16,16,7.16,16,16,16,16-7.16,16-16,7.16-16,16-16,16-7.16,16-16-7.16-16-16-16-16-7.16-16-16,7.16-16,16-16,16-7.16,16-16-7.16-16-16-16-16-7.16-16-16,7.16-16,16-16ZM753.29,32.92c8.84,0,16,7.16,16,16s-7.16,16-16,16-16-7.16-16-16,7.16-16,16-16ZM753.29,256.92c-8.84,0-16-7.16-16-16s7.16-16,16-16,16,7.16,16,16-7.16,16-16,16ZM753.29,192.92c-8.84,0-16-7.16-16-16s7.16-16,16-16,16,7.16,16,16-7.16,16-16,16ZM753.29,128.92c-8.84,0-16-7.16-16-16s7.16-16,16-16,16,7.16,16,16-7.16,16-16,16Z"/>
    <circle class="cls-1" cx="753.29" cy="112.92" r="16"/>
    <circle class="cls-1" cx="753.29" cy="176.92" r="16"/>
    <circle class="cls-1" cx="753.29" cy="240.92" r="16"/>
    <circle class="cls-1" cx="817.58" cy="17.2" r="16"/>
    <path class="cls-1" d="M849.58,97.2c8.84,0,16-7.16,16-16s-7.16-16-16-16-16-7.16-16-16,7.16-16,16-16,16-7.16,16-16-7.16-16-16-16-16,7.16-16,16-7.16,16-16,16-16-7.16-16-16-7.16-16-16-16-16,7.16-16,16,7.16,16,16,16,16,7.16,16,16-7.16,16-16,16-16,7.16-16,16,7.16,16,16,16,16,7.16,16,16-7.16,16-16,16-16,7.16-16,16,7.16,16,16,16,16,7.16,16,16-7.16,16-16,16-16,7.16-16,16,7.16,16,16,16,16,7.16,16,16-7.16,16-16,16-16,7.16-16,16,7.16,16,16,16,16-7.16,16-16,7.16-16,16-16,16,7.16,16,16,7.16,16,16,16,16-7.16,16-16-7.16-16-16-16-16-7.16-16-16,7.16-16,16-16,16-7.16,16-16-7.16-16-16-16-16-7.16-16-16,7.16-16,16-16,16-7.16,16-16-7.16-16-16-16-16-7.16-16-16,7.16-16,16-16ZM817.58,225.2c-8.84,0-16-7.16-16-16s7.16-16,16-16,16,7.16,16,16-7.16,16-16,16ZM817.58,161.2c-8.84,0-16-7.16-16-16s7.16-16,16-16,16,7.16,16,16-7.16,16-16,16ZM817.58,97.2c-8.84,0-16-7.16-16-16s7.16-16,16-16,16,7.16,16,16-7.16,16-16,16Z"/>
    <circle class="cls-1" cx="945.58" cy="17.2" r="16"/>
    <path class="cls-1" d="M977.58,97.2c8.84,0,16-7.16,16-16s-7.16-16-16-16-16-7.16-16-16,7.16-16,16-16,16-7.16,16-16-7.16-16-16-16-16,7.16-16,16-7.16,16-16,16-16-7.16-16-16-7.16-16-16-16-16,7.16-16,16,7.16,16,16,16,16,7.16,16,16-7.16,16-16,16-16,7.16-16,16,7.16,16,16,16,16,7.16,16,16-7.16,16-16,16-16,7.16-16,16,7.16,16,16,16,16,7.16,16,16-7.16,16-16,16-16,7.16-16,16,7.16,16,16,16,16,7.16,16,16-7.16,16-16,16-16,7.16-16,16,7.16,16,16,16,16-7.16,16-16,7.16-16,16-16,16,7.16,16,16,7.16,16,16,16,16-7.16,16-16-7.16-16-16-16-16-7.16-16-16,7.16-16,16-16,16-7.16,16-16-7.16-16-16-16-16-7.16-16-16,7.16-16,16-16,16-7.16,16-16-7.16-16-16-16-16-7.16-16-16,7.16-16,16-16ZM945.58,225.2c-8.84,0-16-7.16-16-16s7.16-16,16-16,16,7.16,16,16-7.16,16-16,16ZM945.58,161.2c-8.84,0-16-7.16-16-16s7.16-16,16-16,16,7.16,16,16-7.16,16-16,16ZM945.58,97.2c-8.84,0-16-7.16-16-16s7.16-16,16-16,16,7.16,16,16-7.16,16-16,16Z"/>
    <circle class="cls-1" cx="1009.58" cy="49.2" r="16"/>
    <circle class="cls-1" cx="817.58" cy="81.2" r="16"/>
    <circle class="cls-1" cx="945.58" cy="81.2" r="16"/>
    <circle class="cls-1" cx="817.58" cy="145.2" r="16"/>
    <circle class="cls-1" cx="945.58" cy="145.2" r="16"/>
    <path class="cls-1" d="M913.58,129.2c8.84,0,16-7.16,16-16s-7.16-16-16-16-16-7.16-16-16,7.16-16,16-16,16-7.16,16-16-7.16-16-16-16-16-7.16-16-16-7.16-16-16-16-16,7.16-16,16-7.16,16-16,16-16,7.16-16,16,7.16,16,16,16,16,7.16,16,16-7.16,16-16,16-16,7.16-16,16,7.16,16,16,16,16,7.16,16,16-7.16,16-16,16-16,7.16-16,16,7.16,16,16,16,16,7.16,16,16-7.16,16-16,16-16,7.16-16,16,7.16,16,16,16,16,7.16,16,16,7.16,16,16,16,16-7.16,16-16,7.16-16,16-16,16-7.16,16-16-7.16-16-16-16-16-7.16-16-16,7.16-16,16-16,16-7.16,16-16-7.16-16-16-16-16-7.16-16-16,7.16-16,16-16ZM881.58,33.2c8.84,0,16,7.16,16,16s-7.16,16-16,16-16-7.16-16-16,7.16-16,16-16ZM881.58,257.2c-8.84,0-16-7.16-16-16s7.16-16,16-16,16,7.16,16,16-7.16,16-16,16ZM881.58,193.2c-8.84,0-16-7.16-16-16s7.16-16,16-16,16,7.16,16,16-7.16,16-16,16ZM881.58,129.2c-8.84,0-16-7.16-16-16s7.16-16,16-16,16,7.16,16,16-7.16,16-16,16Z"/>
    <circle class="cls-1" cx="881.58" cy="49.2" r="16"/>
    <circle class="cls-1" cx="881.58" cy="113.2" r="16"/>
    <circle class="cls-1" cx="881.58" cy="177.2" r="16"/>
    <circle class="cls-1" cx="817.58" cy="209.2" r="16"/>
    <circle class="cls-1" cx="945.58" cy="209.2" r="16"/>
    <circle class="cls-1" cx="881.58" cy="241.2" r="16"/>
    <circle class="cls-1" cx="817.58" cy="273.2" r="16"/>
    <circle class="cls-1" cx="945.58" cy="273.2" r="16"/>
    <path class="cls-1" d="M1041.58,129.2c8.84,0,16-7.16,16-16s-7.16-16-16-16-16-7.16-16-16,7.16-16,16-16,16-7.16,16-16-7.16-16-16-16-16-7.16-16-16-7.16-16-16-16-16,7.16-16,16-7.16,16-16,16-16,7.16-16,16,7.16,16,16,16,16,7.16,16,16-7.16,16-16,16-16,7.16-16,16,7.16,16,16,16,16,7.16,16,16-7.16,16-16,16-16,7.16-16,16,7.16,16,16,16,16,7.16,16,16-7.16,16-16,16-16,7.16-16,16,7.16,16,16,16,16,7.16,16,16,7.16,16,16,16,16-7.16,16-16,7.16-16,16-16,16-7.16,16-16-7.16-16-16-16-16-7.16-16-16,7.16-16,16-16,16-7.16,16-16-7.16-16-16-16-16-7.16-16-16,7.16-16,16-16ZM1009.58,33.2c8.84,0,16,7.16,16,16s-7.16,16-16,16-16-7.16-16-16,7.16-16,16-16ZM1009.58,257.2c-8.84,0-16-7.16-16-16s7.16-16,16-16,16,7.16,16,16-7.16,16-16,16ZM1009.58,193.2c-8.84,0-16-7.16-16-16s7.16-16,16-16,16,7.16,16,16-7.16,16-16,16ZM1009.58,129.2c-8.84,0-16-7.16-16-16s7.16-16,16-16,16,7.16,16,16-7.16,16-16,16Z"/>
    <circle class="cls-1" cx="1009.58" cy="113.2" r="16"/>
    <circle class="cls-1" cx="1009.58" cy="177.2" r="16"/>
    <circle class="cls-1" cx="1009.58" cy="241.2" r="16"/>
    <circle class="cls-1" cx="1073.74" cy="16.5" r="16"/>
    <path class="cls-1" d="M1105.74,96.5c8.84,0,16-7.16,16-16s-7.16-16-16-16-16-7.16-16-16,7.16-16,16-16,16-7.16,16-16-7.16-16-16-16-16,7.16-16,16-7.16,16-16,16-16-7.16-16-16-7.16-16-16-16-16,7.16-16,16,7.16,16,16,16,16,7.16,16,16-7.16,16-16,16-16,7.16-16,16,7.16,16,16,16,16,7.16,16,16-7.16,16-16,16-16,7.16-16,16,7.16,16,16,16,16,7.16,16,16-7.16,16-16,16-16,7.16-16,16,7.16,16,16,16,16,7.16,16,16-7.16,16-16,16-16,7.16-16,16,7.16,16,16,16,16-7.16,16-16,7.16-16,16-16,16,7.16,16,16,7.16,16,16,16,16-7.16,16-16-7.16-16-16-16-16-7.16-16-16,7.16-16,16-16,16-7.16,16-16-7.16-16-16-16-16-7.16-16-16,7.16-16,16-16,16-7.16,16-16-7.16-16-16-16-16-7.16-16-16,7.16-16,16-16ZM1073.74,224.5c-8.84,0-16-7.16-16-16s7.16-16,16-16,16,7.16,16,16-7.16,16-16,16ZM1073.74,160.5c-8.84,0-16-7.16-16-16s7.16-16,16-16,16,7.16,16,16-7.16,16-16,16ZM1073.74,96.5c-8.84,0-16-7.16-16-16s7.16-16,16-16,16,7.16,16,16-7.16,16-16,16Z"/>
    <circle class="cls-1" cx="1201.74" cy="16.5" r="16"/>
    <path class="cls-1" d="M1233.74,96.5c8.84,0,16-7.16,16-16s-7.16-16-16-16-16-7.16-16-16,7.16-16,16-16,16-7.16,16-16-7.16-16-16-16-16,7.16-16,16-7.16,16-16,16-16-7.16-16-16-7.16-16-16-16-16,7.16-16,16,7.16,16,16,16,16,7.16,16,16-7.16,16-16,16-16,7.16-16,16,7.16,16,16,16,16,7.16,16,16-7.16,16-16,16-16,7.16-16,16,7.16,16,16,16,16,7.16,16,16-7.16,16-16,16-16,7.16-16,16,7.16,16,16,16,16,7.16,16,16-7.16,16-16,16-16,7.16-16,16,7.16,16,16,16,16-7.16,16-16,7.16-16,16-16,16,7.16,16,16,7.16,16,16,16,16-7.16,16-16-7.16-16-16-16-16-7.16-16-16,7.16-16,16-16,16-7.16,16-16-7.16-16-16-16-16-7.16-16-16,7.16-16,16-16,16-7.16,16-16-7.16-16-16-16-16-7.16-16-16,7.16-16,16-16ZM1201.74,224.5c-8.84,0-16-7.16-16-16s7.16-16,16-16,16,7.16,16,16-7.16,16-16,16ZM1201.74,160.5c-8.84,0-16-7.16-16-16s7.16-16,16-16,16,7.16,16,16-7.16,16-16,16ZM1201.74,96.5c-8.84,0-16-7.16-16-16s7.16-16,16-16,16,7.16,16,16-7.16,16-16,16Z"/>
    <circle class="cls-1" cx="1265.74" cy="48.5" r="16"/>
    <circle class="cls-1" cx="1073.74" cy="80.5" r="16"/>
    <circle class="cls-1" cx="1201.74" cy="80.5" r="16"/>
    <circle class="cls-1" cx="1073.74" cy="144.5" r="16"/>
    <circle class="cls-1" cx="1201.74" cy="144.5" r="16"/>
    <path class="cls-1" d="M1169.74,128.5c8.84,0,16-7.16,16-16s-7.16-16-16-16-16-7.16-16-16,7.16-16,16-16,16-7.16,16-16-7.16-16-16-16-16-7.16-16-16-7.16-16-16-16-16,7.16-16,16-7.16,16-16,16-16,7.16-16,16,7.16,16,16,16,16,7.16,16,16-7.16,16-16,16-16,7.16-16,16,7.16,16,16,16,16,7.16,16,16-7.16,16-16,16-16,7.16-16,16,7.16,16,16,16,16,7.16,16,16-7.16,16-16,16-16,7.16-16,16,7.16,16,16,16,16,7.16,16,16,7.16,16,16,16,16-7.16,16-16,7.16-16,16-16,16-7.16,16-16-7.16-16-16-16-16-7.16-16-16,7.16-16,16-16,16-7.16,16-16-7.16-16-16-16-16-7.16-16-16,7.16-16,16-16ZM1137.74,32.5c8.84,0,16,7.16,16,16s-7.16,16-16,16-16-7.16-16-16,7.16-16,16-16ZM1137.74,256.5c-8.84,0-16-7.16-16-16s7.16-16,16-16,16,7.16,16,16-7.16,16-16,16ZM1137.74,192.5c-8.84,0-16-7.16-16-16s7.16-16,16-16,16,7.16,16,16-7.16,16-16,16ZM1137.74,128.5c-8.84,0-16-7.16-16-16s7.16-16,16-16,16,7.16,16,16-7.16,16-16,16Z"/>
    <circle class="cls-1" cx="1137.74" cy="48.5" r="16"/>
    <circle class="cls-1" cx="1137.74" cy="112.5" r="16"/>
    <circle class="cls-1" cx="1137.74" cy="176.5" r="16"/>
    <circle class="cls-1" cx="1073.74" cy="208.5" r="16"/>
    <circle class="cls-1" cx="1201.74" cy="208.5" r="16"/>
    <circle class="cls-1" cx="1137.74" cy="240.5" r="16"/>
    <circle class="cls-1" cx="1073.74" cy="272.5" r="16"/>
    <circle class="cls-1" cx="1201.74" cy="272.5" r="16"/>
    <path class="cls-1" d="M1297.74,128.5c8.84,0,16-7.16,16-16s-7.16-16-16-16-16-7.16-16-16,7.16-16,16-16,16-7.16,16-16-7.16-16-16-16-16-7.16-16-16-7.16-16-16-16-16,7.16-16,16-7.16,16-16,16-16,7.16-16,16,7.16,16,16,16,16,7.16,16,16-7.16,16-16,16-16,7.16-16,16,7.16,16,16,16,16,7.16,16,16-7.16,16-16,16-16,7.16-16,16,7.16,16,16,16,16,7.16,16,16-7.16,16-16,16-16,7.16-16,16,7.16,16,16,16,16,7.16,16,16,7.16,16,16,16,16-7.16,16-16,7.16-16,16-16,16-7.16,16-16-7.16-16-16-16-16-7.16-16-16,7.16-16,16-16,16-7.16,16-16-7.16-16-16-16-16-7.16-16-16,7.16-16,16-16ZM1265.74,32.5c8.84,0,16,7.16,16,16s-7.16,16-16,16-16-7.16-16-16,7.16-16,16-16ZM1265.74,256.5c-8.84,0-16-7.16-16-16s7.16-16,16-16,16,7.16,16,16-7.16,16-16,16ZM1265.74,192.5c-8.84,0-16-7.16-16-16s7.16-16,16-16,16,7.16,16,16-7.16,16-16,16ZM1265.74,128.5c-8.84,0-16-7.16-16-16s7.16-16,16-16,16,7.16,16,16-7.16,16-16,16Z"/>
    <circle class="cls-1" cx="1265.74" cy="112.5" r="16"/>
    <circle class="cls-1" cx="1265.74" cy="176.5" r="16"/>
    <circle class="cls-1" cx="1265.74" cy="240.5" r="16"/>
    <circle class="cls-1" cx="1330.03" cy="16.77" r="16"/>
    <path class="cls-1" d="M1362.03,96.77c8.84,0,16-7.16,16-16s-7.16-16-16-16-16-7.16-16-16,7.16-16,16-16,16-7.16,16-16-7.16-16-16-16-16,7.16-16,16-7.16,16-16,16-16-7.16-16-16-7.16-16-16-16-16,7.16-16,16,7.16,16,16,16,16,7.16,16,16-7.16,16-16,16-16,7.16-16,16,7.16,16,16,16,16,7.16,16,16-7.16,16-16,16-16,7.16-16,16,7.16,16,16,16,16,7.16,16,16-7.16,16-16,16-16,7.16-16,16,7.16,16,16,16,16,7.16,16,16-7.16,16-16,16-16,7.16-16,16,7.16,16,16,16,16-7.16,16-16,7.16-16,16-16,16,7.16,16,16,7.16,16,16,16,16-7.16,16-16-7.16-16-16-16-16-7.16-16-16,7.16-16,16-16,16-7.16,16-16-7.16-16-16-16-16-7.16-16-16,7.16-16,16-16,16-7.16,16-16-7.16-16-16-16-16-7.16-16-16,7.16-16,16-16ZM1330.03,224.77c-8.84,0-16-7.16-16-16s7.16-16,16-16,16,7.16,16,16-7.16,16-16,16ZM1330.03,160.77c-8.84,0-16-7.16-16-16s7.16-16,16-16,16,7.16,16,16-7.16,16-16,16ZM1330.03,96.77c-8.84,0-16-7.16-16-16s7.16-16,16-16,16,7.16,16,16-7.16,16-16,16Z"/>
    <circle class="cls-1" cx="1458.03" cy="16.77" r="16"/>
    <path class="cls-1" d="M1490.03,96.77c8.84,0,16-7.16,16-16s-7.16-16-16-16-16-7.16-16-16,7.16-16,16-16,16-7.16,16-16-7.16-16-16-16-16,7.16-16,16-7.16,16-16,16-16-7.16-16-16-7.16-16-16-16-16,7.16-16,16,7.16,16,16,16,16,7.16,16,16-7.16,16-16,16-16,7.16-16,16,7.16,16,16,16,16,7.16,16,16-7.16,16-16,16-16,7.16-16,16,7.16,16,16,16,16,7.16,16,16-7.16,16-16,16-16,7.16-16,16,7.16,16,16,16,16,7.16,16,16-7.16,16-16,16-16,7.16-16,16,7.16,16,16,16,16-7.16,16-16,7.16-16,16-16,16,7.16,16,16,7.16,16,16,16,16-7.16,16-16-7.16-16-16-16-16-7.16-16-16,7.16-16,16-16,16-7.16,16-16-7.16-16-16-16-16-7.16-16-16,7.16-16,16-16,16-7.16,16-16-7.16-16-16-16-16-7.16-16-16,7.16-16,16-16ZM1458.03,224.77c-8.84,0-16-7.16-16-16s7.16-16,16-16,16,7.16,16,16-7.16,16-16,16ZM1458.03,160.77c-8.84,0-16-7.16-16-16s7.16-16,16-16,16,7.16,16,16-7.16,16-16,16ZM1458.03,96.77c-8.84,0-16-7.16-16-16s7.16-16,16-16,16,7.16,16,16-7.16,16-16,16Z"/>
    <circle class="cls-1" cx="1330.03" cy="80.77" r="16"/>
    <circle class="cls-1" cx="1458.03" cy="80.77" r="16"/>
    <circle class="cls-1" cx="1330.03" cy="144.77" r="16"/>
    <circle class="cls-1" cx="1458.03" cy="144.77" r="16"/>
    <path class="cls-1" d="M1426.03,128.77c8.84,0,16-7.16,16-16s-7.16-16-16-16-16-7.16-16-16,7.16-16,16-16,16-7.16,16-16-7.16-16-16-16-16-7.16-16-16-7.16-16-16-16-16,7.16-16,16-7.16,16-16,16-16,7.16-16,16,7.16,16,16,16,16,7.16,16,16-7.16,16-16,16-16,7.16-16,16,7.16,16,16,16,16,7.16,16,16-7.16,16-16,16-16,7.16-16,16,7.16,16,16,16,16,7.16,16,16-7.16,16-16,16-16,7.16-16,16,7.16,16,16,16,16,7.16,16,16,7.16,16,16,16,16-7.16,16-16,7.16-16,16-16,16-7.16,16-16-7.16-16-16-16-16-7.16-16-16,7.16-16,16-16,16-7.16,16-16-7.16-16-16-16-16-7.16-16-16,7.16-16,16-16ZM1394.03,32.77c8.84,0,16,7.16,16,16s-7.16,16-16,16-16-7.16-16-16,7.16-16,16-16ZM1394.03,256.77c-8.84,0-16-7.16-16-16s7.16-16,16-16,16,7.16,16,16-7.16,16-16,16ZM1394.03,192.77c-8.84,0-16-7.16-16-16s7.16-16,16-16,16,7.16,16,16-7.16,16-16,16ZM1394.03,128.77c-8.84,0-16-7.16-16-16s7.16-16,16-16,16,7.16,16,16-7.16,16-16,16Z"/>
    <circle class="cls-1" cx="1394.03" cy="48.77" r="16"/>
    <circle class="cls-1" cx="1394.03" cy="112.77" r="16"/>
    <circle class="cls-1" cx="1394.03" cy="176.77" r="16"/>
    <circle class="cls-1" cx="1330.03" cy="208.77" r="16"/>
    <circle class="cls-1" cx="1458.03" cy="208.77" r="16"/>
    <circle class="cls-1" cx="1394.03" cy="240.77" r="16"/>
    <circle class="cls-1" cx="1330.03" cy="272.77" r="16"/>
    <circle class="cls-1" cx="1458.03" cy="272.77" r="16"/>
    <path class="cls-1" d="M1506.45,49.09c0,8.84-7.16,16-16,16s-16-7.16-16-16,7.16-16,16-16,16,7.16,16,16"/>
    <path class="cls-1" d="M1506.45,113.09c0,8.84-7.16,16-16,16s-16-7.16-16-16,7.16-16,16-16,16,7.16,16,16"/>
    <path class="cls-1" d="M1506.45,177.09c0,8.84-7.16,16-16,16s-16-7.16-16-16,7.16-16,16-16,16,7.16,16,16"/>
    <path class="cls-1" d="M1506.45,241.09c0,8.84-7.16,16-16,16s-16-7.16-16-16,7.16-16,16-16,16,7.16,16,16"/>
  </g>
</svg>