<?xml version="1.0" encoding="UTF-8"?>
<svg id="Layer_2" data-name="Layer 2" xmlns="http://www.w3.org/2000/svg" viewBox="0 0 352.3 352.3">
  <defs>
    <style>
      .cls-1 {
        fill: #000;
        stroke: #fff;
        stroke-miterlimit: 10;
        stroke-width: .3px;
      }

      .cls-2 {
        fill: #fff;
        stroke-width: 0px;
      }
    </style>
  </defs>
  <g id="Layer_1-2" data-name="Layer 1">
    <path class="cls-1" d="M336.15,160.15c-8.84,0-16-7.16-16-16,0-8.84-7.16-16-16-16s-16-7.16-16-16-7.16-16-16-16c-8.84,0-16-7.16-16-16s-7.16-16-16-16c-8.84,0-16-7.16-16-16,0-8.84-7.16-16-16-16s-16-7.16-16-16c0-8.84-7.16-16-16-16s-16,7.16-16,16c0,8.84-7.16,16-16,16s-16,7.16-16,16c0,8.84-7.16,16-16,16s-16,7.16-16,16-7.16,16-16,16c-8.84,0-16,7.16-16,16s-7.16,16-16,16c-8.84,0-16,7.16-16,16s-7.16,16-16,16S.15,167.31.15,176.15c0,8.84,7.16,16,16,16,8.84,0,16,7.16,16,16,0,8.84,7.16,16,16,16,8.84,0,16,7.16,16,16,0,8.84,7.16,16,16,16,8.84,0,16,7.16,16,16s7.16,16,16,16c8.84,0,16,7.16,16,16s7.16,16,16,16c8.84,0,16,7.16,16,16s7.16,16,16,16c8.84,0,16-7.16,16-16s7.16-16,16-16,16-7.16,16-16c0-8.84,7.16-16,16-16s16-7.16,16-16,7.16-16,16-16c8.84,0,16-7.16,16-16s7.16-16,16-16c8.84,0,16-7.16,16-16s7.16-16,16-16c8.84,0,16-7.16,16-16,0-8.84-7.16-16-16-16ZM304.15,192.15c-8.84,0-16,7.16-16,16s-7.16,16-16,16c-8.84,0-16,7.16-16,16s-7.16,16-16,16-16,7.16-16,16c0,8.84-7.16,16-16,16s-16,7.16-16,16c0,8.84-7.16,16-16,16-8.84,0-16-7.16-16-16s-7.16-16-16-16c-8.84,0-16-7.16-16-16,0-8.84-7.16-16-16-16s-16-7.16-16-16-7.16-16-16-16c-8.84,0-16-7.16-16-16,0-8.84-7.16-16-16-16s-16-7.16-16-16,7.16-16,16-16,16-7.16,16-16,7.16-16,16-16c8.84,0,16-7.16,16-16s7.16-16,16-16c8.84,0,16-7.16,16-16,0-8.84,7.16-16,16-16,8.84,0,16-7.16,16-16,0-8.84,7.16-16,16-16,8.84,0,16,7.16,16,16,0,8.84,7.16,16,16,16,8.84,0,16,7.16,16,16,0,8.84,7.16,16,16,16,8.84,0,16,7.16,16,16s7.16,16,16,16,16,7.16,16,16c0,8.84,7.16,16,16,16,8.84,0,16,7.16,16,16s-7.16,16-16,16Z"/>
    <path class="cls-1" d="M304.15,160.15c-8.84,0-16-7.16-16-16,0-8.84-7.16-16-16-16s-16-7.16-16-16-7.16-16-16-16c-8.84,0-16-7.16-16-16,0-8.84-7.16-16-16-16-8.84,0-16-7.16-16-16,0-8.84-7.16-16-16-16-8.84,0-16,7.16-16,16,0,8.84-7.16,16-16,16-8.84,0-16,7.16-16,16,0,8.84-7.16,16-16,16-8.84,0-16,7.16-16,16s-7.16,16-16,16c-8.84,0-16,7.16-16,16s-7.16,16-16,16-16,7.16-16,16,7.16,16,16,16,16,7.16,16,16c0,8.84,7.16,16,16,16,8.84,0,16,7.16,16,16s7.16,16,16,16,16,7.16,16,16c0,8.84,7.16,16,16,16,8.84,0,16,7.16,16,16s7.16,16,16,16c8.84,0,16-7.16,16-16,0-8.84,7.16-16,16-16s16-7.16,16-16c0-8.84,7.16-16,16-16s16-7.16,16-16,7.16-16,16-16c8.84,0,16-7.16,16-16s7.16-16,16-16,16-7.16,16-16-7.16-16-16-16ZM272.15,192.15c-8.84,0-16,7.16-16,16s-7.16,16-16,16c-8.84,0-16,7.16-16,16,0,8.84-7.16,16-16,16s-16,7.16-16,16c0,8.84-7.16,16-16,16-8.84,0-16-7.16-16-16,0-8.84-7.16-16-16-16s-16-7.16-16-16c0-8.84-7.16-16-16-16-8.84,0-16-7.16-16-16s-7.16-16-16-16-16-7.16-16-16,7.16-16,16-16c8.84,0,16-7.16,16-16s7.16-16,16-16,16-7.16,16-16c0-8.84,7.16-16,16-16,8.84,0,16-7.16,16-16,0-8.84,7.16-16,16-16,8.84,0,16,7.16,16,16,0,8.84,7.16,16,16,16,8.84,0,16,7.16,16,16,0,8.84,7.16,16,16,16,8.84,0,16,7.16,16,16s7.16,16,16,16c8.84,0,16,7.16,16,16s-7.16,16-16,16Z"/>
    <path class="cls-1" d="M272.15,160.15c-8.84,0-16-7.16-16-16s-7.16-16-16-16c-8.84,0-16-7.16-16-16,0-8.84-7.16-16-16-16-8.84,0-16-7.16-16-16,0-8.84-7.16-16-16-16-8.84,0-16,7.16-16,16,0,8.84-7.16,16-16,16-8.84,0-16,7.16-16,16,0,8.84-7.16,16-16,16s-16,7.16-16,16-7.16,16-16,16c-8.84,0-16,7.16-16,16s7.16,16,16,16,16,7.16,16,16,7.16,16,16,16c8.84,0,16,7.16,16,16,0,8.84,7.16,16,16,16s16,7.16,16,16c0,8.84,7.16,16,16,16,8.84,0,16-7.16,16-16,0-8.84,7.16-16,16-16s16-7.16,16-16c0-8.84,7.16-16,16-16,8.84,0,16-7.16,16-16s7.16-16,16-16,16-7.16,16-16-7.16-16-16-16ZM240.15,192.15c-8.84,0-16,7.16-16,16,0,8.84-7.16,16-16,16-8.84,0-16,7.16-16,16,0,8.84-7.16,16-16,16s-16-7.16-16-16-7.16-16-16-16c-8.84,0-16-7.16-16-16s-7.16-16-16-16c-8.84,0-16-7.16-16-16s7.16-16,16-16c8.84,0,16-7.16,16-16s7.16-16,16-16,16-7.16,16-16c0-8.84,7.16-16,16-16,8.84,0,16,7.16,16,16,0,8.84,7.16,16,16,16,8.84,0,16,7.16,16,16,0,8.84,7.16,16,16,16,8.84,0,16,7.16,16,16s-7.16,16-16,16Z"/>
    <path class="cls-1" d="M240.15,160.15c-8.84,0-16-7.16-16-16,0-8.84-7.16-16-16-16-8.84,0-16-7.16-16-16,0-8.84-7.16-16-16-16-8.84,0-16,7.16-16,16,0,8.84-7.16,16-16,16s-16,7.16-16,16-7.16,16-16,16c-8.84,0-16,7.16-16,16s7.16,16,16,16c8.84,0,16,7.16,16,16s7.16,16,16,16c8.84,0,16,7.16,16,16s7.16,16,16,16,16-7.16,16-16c0-8.84,7.16-16,16-16,8.84,0,16-7.16,16-16,0-8.84,7.16-16,16-16s16-7.16,16-16-7.16-16-16-16ZM208.15,192.15c-8.84,0-16,7.16-16,16,0,8.84-7.16,16-16,16-8.84,0-16-7.16-16-16s-7.16-16-16-16-16-7.16-16-16,7.16-16,16-16c8.84,0,16-7.16,16-16s7.16-16,16-16,16,7.16,16,16c0,8.84,7.16,16,16,16,8.84,0,16,7.16,16,16,0,8.84-7.16,16-16,16Z"/>
    <path class="cls-1" d="M224.15,176.15c0,8.84-7.16,16-16,16s-16,7.16-16,16c0,8.84-7.16,16-16,16-8.84,0-16-7.16-16-16s-7.16-16-16-16-16-7.16-16-16,7.16-16,16-16c8.84,0,16-7.16,16-16s7.16-16,16-16,16,7.16,16,16c0,8.84,7.16,16,16,16,8.84,0,16,7.16,16,16Z"/>
    <g id="Calque_1" data-name="Calque 1">
      <g>
        <path class="cls-2" d="M170.43,181.6c-.65-.65-1.55-1.06-2.54-1.06-1.98,0-3.59,1.61-3.59,3.59,0,.99.4,1.9,1.06,2.54.65.65,1.55,1.06,2.54,1.06,1.98,0,3.59-1.61,3.59-3.59,0-.99-.4-1.89-1.06-2.54h0Z"/>
        <path class="cls-2" d="M188.11,181.6c-.65-.65-1.55-1.06-2.54-1.06-1.98,0-3.59,1.61-3.59,3.59,0,.99.4,1.9,1.06,2.54.65.65,1.55,1.06,2.54,1.06,1.98,0,3.59-1.61,3.59-3.59,0-.99-.4-1.89-1.06-2.54h0Z"/>
        <path class="cls-2" d="M167.89,169.93h0c2.94,0,5.31,2.37,5.31,5.31h0c0,1.98,1.61,3.59,3.59,3.59s3.59-1.61,3.59-3.59h0c0-2.93,2.38-5.3,5.3-5.3h0c1.98,0,3.59-1.61,3.59-3.59s-1.61-3.59-3.59-3.59-3.59,1.61-3.59,3.59h0c0,2.93-2.38,5.3-5.3,5.3h0c-2.93,0-5.31-2.37-5.31-5.31h0c0-1.98-1.61-3.59-3.59-3.59s-3.59,1.61-3.59,3.59,1.61,3.59,3.59,3.59h0Z"/>
        <path class="cls-2" d="M185.7,171.64c-1.98,0-3.59,1.61-3.59,3.59h0c0,2.93-2.38,5.31-5.31,5.31s-5.31-2.38-5.31-5.31h0c0-1.98-1.61-3.59-3.59-3.59s-3.59,1.61-3.59,3.59,1.61,3.59,3.59,3.59h0c2.94,0,5.31,2.38,5.31,5.31h0c0,1.98,1.61,3.59,3.59,3.59s3.59-1.61,3.59-3.59h0c0-2.93,2.38-5.31,5.31-5.31h0c1.98,0,3.59-1.61,3.59-3.59s-1.61-3.59-3.59-3.59h0Z"/>
      </g>
    </g>
  </g>
</svg>