<?xml version="1.0" encoding="UTF-8"?>
<svg id="Layer_2" data-name="Layer 2" xmlns="http://www.w3.org/2000/svg" viewBox="0 0 96.1 96.1">
  <defs>
    <style>
      .cls-1 {
        fill: #2ae8b2;
        stroke: #fff;
        stroke-miterlimit: 10;
        stroke-width: 1px;
      }
    </style>
  </defs>
  <g id="Layer_1-2" data-name="Layer 1">
    <path class="cls-1" d="M96.05,16.05c0,8.84-7.16,16-16,16s-16,7.16-16,16c0,8.83,7.17,15.99,15.99,15.99,8.84,0,16,7.16,16,16,0,8.83-7.16,16-15.99,15.99-8.84,0-16-7.16-16-16,0-8.82-7.16-15.99-15.99-15.99-8.84,0-16,7.16-16,16s-7.16,16-16,16S.05,88.89.05,80.05s7.16-16,16-16,16-7.16,16-16c0-8.83-7.17-15.99-16-16C7.21,32.05.05,24.88.05,16.04c0-8.82,7.17-15.99,15.99-15.99C24.88.05,32.05,7.21,32.05,16.05c0,8.83,7.17,15.99,16,16,8.84,0,16-7.16,16-16C64.05,7.21,71.21.05,80.05.05s16,7.16,16,16Z"/>
  </g>
</svg>