<?xml version="1.0" encoding="UTF-8"?>
<svg id="Layer_2" data-name="Layer 2" xmlns="http://www.w3.org/2000/svg" viewBox="0 0 99 131">
  <defs>
    <style>
      .cls-1 {
        fill: #2ae8b2;
        stroke: #fff;
        stroke-miterlimit: 10;
        stroke-width: 5px;
      }
    </style>
  </defs>
  <g id="Layer_1-2" data-name="Layer 1">
    <path class="cls-1" d="M65.5,81.5c0,8.84-7.16,16-16,16-8.84,0-16-7.16-15.99-15.99,0-8.84,7.16-16,16-16s15.99-7.17,15.99-15.99c0-8.84-7.16-16-16-16-8.83,0-15.99-7.17-16-16,0-8.84,7.16-16,16-16,8.84,0,16,7.16,16,16,0,8.84,7.16,16,16,16,8.83,0,15.99,7.16,15.99,15.99,0,8.84-7.16,16-16,16-8.83,0-16,7.16-15.99,15.99Z"/>
    <path class="cls-1" d="M49.5,129.5c-8.84,0-16-7.16-16-16,0-8.84-7.16-16-15.99-15.99-8.84,0-16-7.16-16-16s7.16-16,16-16,16-7.16,16-16c0-8.83,7.16-16,15.99-15.99,8.84,0,16,7.16,16,16,0,8.82-7.17,15.99-15.99,15.99s-16,7.16-16,16c0,8.83,7.16,15.99,15.99,15.99,8.84,0,16,7.16,16,16,0,8.84-7.16,16-16,16Z"/>
  </g>
</svg>