<?xml version="1.0" encoding="UTF-8"?>
<svg id="Layer_2" data-name="Layer 2" xmlns="http://www.w3.org/2000/svg" viewBox="0 0 401 401">
  <defs>
    <style>
      .cls-1 {
        fill: none;
        stroke: #ccc;
        stroke-miterlimit: 10;
      }

      .cls-2 {
        fill: #000;
        stroke-width: 0px;
      }

      .cls-3 {
        fill: #fff;
        font-family: Helvetica, Helvetica;
        font-size: 14px;
      }
    </style>
  </defs>
  <g id="Layer_1-2" data-name="Layer 1">
    <path class="cls-1" d="M390.5,200.5c0,104.97-85.02,190-190,190S10.5,305.47,10.5,200.5,95.52,10.5,200.5,10.5s190,85.02,190,190Z"/>
    <path class="cls-1" d="M310.79,200.33c0,60.77-49.22,110-110,110s-110-49.23-110-110,49.22-110,110-110,110,49.22,110,110Z"/>
    <path class="cls-2" d="M270.79,214.33c0,7.73-6.26,14-14,14s-14-6.27-14-14-6.26-14-14-14-14,6.26-14,14-6.26,14-14,14-14-6.27-14-14-6.26-14-14-14-14,6.26-14,14-6.26,14-14,14-14-6.27-14-14,6.26-14,14-14,14-6.27,14-14,6.26-14,14-14,14,6.26,14,14,6.26,14,14,14,14-6.27,14-14,6.26-14,14-14,14,6.26,14,14,6.26,14,14,14,14,6.26,14,14Z"/>
    <path class="cls-1" d="M320.61,200.35c0,66.3-53.7,120-120,120s-120-53.7-120-120,53.7-120,120-120,120,53.7,120,120Z"/>
    <path class="cls-1" d="M340.61,200.35c0,77.35-62.65,140-140,140S60.61,277.7,60.61,200.35,123.26,60.35,200.61,60.35s140,62.65,140,140Z"/>
    <path class="cls-1" d="M330.61,200.35c0,71.82-58.17,130-130,130s-130-58.18-130-130,58.17-130,130-130,130,58.17,130,130Z"/>
    <path class="cls-1" d="M350.71,200.77c0,82.87-67.12,150-150,150S50.71,283.65,50.71,200.77,117.83,50.77,200.71,50.77s150,67.12,150,150Z"/>
    <path class="cls-1" d="M360.71,200.77c0,88.4-71.6,160-160,160S40.71,289.17,40.71,200.77,112.31,40.77,200.71,40.77s160,71.6,160,160Z"/>
    <path class="cls-1" d="M370.71,200.77c0,93.92-76.07,170-170,170S30.71,294.7,30.71,200.77,106.78,30.77,200.71,30.77s170,76.07,170,170Z"/>
    <path class="cls-1" d="M380.71,200.77c0,99.45-80.55,180-180,180S20.71,300.22,20.71,200.77,101.26,20.77,200.71,20.77s180,80.55,180,180Z"/>
    <path class="cls-2" d="M148.25,76.8c0,22.1-17.9,40-40,40s-40-17.9-40-40,17.9-40,40-40,40,17.9,40,40Z"/>
    <path class="cls-2" d="M240.71,355.77c0,22.1-17.9,40-40,40s-40-17.9-40-40,17.9-40,40-40,40,17.9,40,40Z"/>
    <path class="cls-2" d="M330.71,75.77c0,22.1-17.9,40-40,40s-40-17.9-40-40,17.9-40,40-40,40,17.9,40,40Z"/>
    <path class="cls-2" d="M95.71,251.77c0,22.1-17.9,40-40,40s-40-17.9-40-40,17.9-40,40-40,40,17.9,40,40Z"/>
    <path class="cls-2" d="M387.71,251.77c0,22.1-17.9,40-40,40s-40-17.9-40-40,17.9-40,40-40,40,17.9,40,40Z"/>
    <text class="cls-3" transform="translate(181.55 361.14)"><tspan x="0" y="0">Share</tspan></text>
    <text class="cls-3" transform="translate(331.75 256.35)"><tspan x="0" y="0">Align</tspan></text>
    <text class="cls-3" transform="translate(77.19 80.35)"><tspan x="0" y="0">Challenge</tspan></text>
    <text class="cls-3" transform="translate(23.03 256.58)"><tspan x="0" y="0">Contribute</tspan></text>
    <text class="cls-3" transform="translate(263.39 80.61)"><tspan x="0" y="0">Evaluate</tspan></text>
    <path class="cls-1" d="M400.5,200.5c0,110.5-89.5,200-200,200S.5,311,.5,200.5,90,.5,200.5.5s200,89.5,200,200Z"/>
  </g>
</svg>