<?xml version="1.0" encoding="UTF-8"?>
<svg id="Layer_2" data-name="Layer 2" xmlns="http://www.w3.org/2000/svg" viewBox="0 0 122.52 122.51">
  <defs>
    <style>
      .cls-1 {
        fill: #2ae8b2;
        stroke-width: 0px;
      }
    </style>
  </defs>
  <g id="Layer_1-2" data-name="Layer 1">
    <path class="cls-1" d="M72.57,27.31c-6.24,6.25-16.38,6.25-22.62,0-6.25-6.25-16.38-6.25-22.63,0s-6.25,16.38,0,22.63,6.25,16.38,0,22.63c-6.25,6.24-6.25,16.38,0,22.62,6.25,6.25,6.25,16.38,0,22.63s-16.38,6.25-22.63,0-6.25-16.38,0-22.63c6.25-6.24,6.25-16.38,0-22.62-6.25-6.25-6.25-16.38,0-22.63s6.25-16.38,0-22.63S-1.56,10.93,4.69,4.68c6.25-6.24,16.38-6.24,22.63,0,6.25,6.25,16.38,6.25,22.63,0,6.24-6.24,16.38-6.24,22.62,0,6.25,6.25,6.25,16.38,0,22.63Z"/>
    <path class="cls-1" d="M72.57,72.57c-6.24,6.24-16.38,6.24-22.62,0-6.25-6.25-6.25-16.38,0-22.63,6.24-6.25,16.38-6.25,22.62,0,6.25,6.25,6.25,16.38,0,22.63Z"/>
    <path class="cls-1" d="M117.83,72.57c-6.25,6.24-6.25,16.38,0,22.62,6.25,6.25,6.25,16.38,0,22.63s-16.38,6.25-22.63,0-16.38-6.25-22.63,0c-6.24,6.25-16.38,6.25-22.62,0-6.25-6.25-6.25-16.38,0-22.63,6.24-6.24,16.38-6.24,22.62,0,6.25,6.25,16.38,6.25,22.63,0,6.25-6.24,6.25-16.38,0-22.62-6.25-6.25-6.25-16.38,0-22.63s6.25-16.38,0-22.63-6.25-16.38,0-22.63c6.25-6.24,16.38-6.24,22.63,0,6.25,6.25,6.25,16.38,0,22.63s-6.25,16.38,0,22.63,6.25,16.38,0,22.63Z"/>
  </g>
</svg>