<?xml version="1.0" encoding="UTF-8"?>
<svg id="Layer_2" data-name="Layer 2" xmlns="http://www.w3.org/2000/svg" viewBox="0 18 1178 254">
  <defs>
    <style>
      .cls-1 {
        stroke: #000;
        stroke-width: .1px;
      }

      .cls-1 {
        fill: #2ae8b2;
        stroke-miterlimit: 10;
      }
      .cls-2 {
        fill: transparent;
        stroke-miterlimit: 10;
      }

      .cls-2 {
        stroke: #2ae8b2;
        stroke-width: 1px;
      }
    </style>
  </defs>
  <g id="Layer_1-2" data-name="Layer 1">
    <g>
      <path class="cls-2" d="M714.22,146.24c0,8.84-7.16,16-16,16s-16,7.16-16,16-7.16,16-16,16-16,7.16-16,16-7.16,16-16,16-16,7.16-16,16-7.16,16-16,16-16,7.16-16,16-7.16,16-16,16-16-7.16-16-16,7.16-16,16-16,16-7.16,16-16,7.16-16,16-16,16-7.16,16-16,7.16-16,16-16,16-7.16,16-16,7.16-16,16-16,16-7.16,16-16-7.16-16-16-16-16-7.16-16-16-7.16-16-16-16-16-7.16-16-16-7.16-16-16-16-16-7.16-16-16-7.16-16-16-16-16-7.16-16-16,7.16-16,16-16,16,7.16,16,16,7.16,16,16,16,16,7.16,16,16,7.16,16,16,16,16,7.16,16,16,7.16,16,16,16,16,7.16,16,16,7.16,16,16,16,16,7.16,16,16Z"/>
      <path class="cls-2" d="M778.22,146.24c0,8.84-7.16,16-16,16s-16,7.16-16,16-7.16,16-16,16-16,7.16-16,16-7.16,16-16,16-16,7.16-16,16-7.16,16-16,16-16,7.16-16,16-7.16,16-16,16-16-7.16-16-16,7.16-16,16-16,16-7.16,16-16,7.16-16,16-16,16-7.16,16-16,7.16-16,16-16,16-7.16,16-16,7.16-16,16-16,16-7.16,16-16-7.16-16-16-16-16-7.16-16-16-7.16-16-16-16-16-7.16-16-16-7.16-16-16-16-16-7.16-16-16-7.16-16-16-16-16-7.16-16-16,7.16-16,16-16,16,7.16,16,16,7.16,16,16,16,16,7.16,16,16,7.16,16,16,16,16,7.16,16,16,7.16,16,16,16,16,7.16,16,16,7.16,16,16,16,16,7.16,16,16Z"/>
      <path class="cls-2" d="M842.22,146.24c0,8.84-7.16,16-16,16s-16,7.16-16,16-7.16,16-16,16-16,7.16-16,16-7.16,16-16,16-16,7.16-16,16-7.16,16-16,16-16,7.16-16,16-7.16,16-16,16-16-7.16-16-16,7.16-16,16-16,16-7.16,16-16,7.16-16,16-16,16-7.16,16-16,7.16-16,16-16,16-7.16,16-16,7.16-16,16-16,16-7.16,16-16-7.16-16-16-16-16-7.16-16-16-7.16-16-16-16-16-7.16-16-16-7.16-16-16-16-16-7.16-16-16-7.16-16-16-16-16-7.16-16-16,7.16-16,16-16,16,7.16,16,16,7.16,16,16,16,16,7.16,16,16,7.16,16,16,16,16,7.16,16,16,7.16,16,16,16,16,7.16,16,16,7.16,16,16,16,16,7.16,16,16Z"/>
      <path class="cls-2" d="M874.22,146.24c0,8.84-7.16,16-16,16s-16,7.16-16,16-7.16,16-16,16-16,7.16-16,16-7.16,16-16,16-16,7.16-16,16-7.16,16-16,16-16,7.16-16,16-7.16,16-16,16-16-7.16-16-16,7.16-16,16-16,16-7.16,16-16,7.16-16,16-16,16-7.16,16-16,7.16-16,16-16,16-7.16,16-16,7.16-16,16-16,16-7.16,16-16-7.16-16-16-16-16-7.16-16-16-7.16-16-16-16-16-7.16-16-16-7.16-16-16-16-16-7.16-16-16-7.16-16-16-16-16-7.16-16-16,7.16-16,16-16,16,7.16,16,16,7.16,16,16,16,16,7.16,16,16,7.16,16,16,16,16,7.16,16,16,7.16,16,16,16,16,7.16,16,16,7.16,16,16,16,16,7.16,16,16Z"/>
      <path class="cls-2" d="M906.22,146.24c0,8.84-7.16,16-16,16s-16,7.16-16,16-7.16,16-16,16-16,7.16-16,16-7.16,16-16,16-16,7.16-16,16-7.16,16-16,16-16,7.16-16,16-7.16,16-16,16-16-7.16-16-16,7.16-16,16-16,16-7.16,16-16,7.16-16,16-16,16-7.16,16-16,7.16-16,16-16,16-7.16,16-16,7.16-16,16-16,16-7.16,16-16-7.16-16-16-16-16-7.16-16-16-7.16-16-16-16-16-7.16-16-16-7.16-16-16-16-16-7.16-16-16-7.16-16-16-16-16-7.16-16-16,7.16-16,16-16,16,7.16,16,16,7.16,16,16,16,16,7.16,16,16,7.16,16,16,16,16,7.16,16,16,7.16,16,16,16,16,7.16,16,16,7.16,16,16,16,16,7.16,16,16Z"/>
      <path class="cls-2" d="M970.22,146.24c0,8.84-7.16,16-16,16s-16,7.16-16,16-7.16,16-16,16-16,7.16-16,16-7.16,16-16,16-16,7.16-16,16-7.16,16-16,16-16,7.16-16,16-7.16,16-16,16-16-7.16-16-16,7.16-16,16-16,16-7.16,16-16,7.16-16,16-16,16-7.16,16-16,7.16-16,16-16,16-7.16,16-16,7.16-16,16-16,16-7.16,16-16-7.16-16-16-16-16-7.16-16-16-7.16-16-16-16-16-7.16-16-16-7.16-16-16-16-16-7.16-16-16-7.16-16-16-16-16-7.16-16-16,7.16-16,16-16,16,7.16,16,16,7.16,16,16,16,16,7.16,16,16,7.16,16,16,16,16,7.16,16,16,7.16,16,16,16,16,7.16,16,16,7.16,16,16,16,16,7.16,16,16Z"/>
      <path class="cls-2" d="M1066.22,146.24c0,8.84-7.16,16-16,16s-16,7.16-16,16-7.16,16-16,16-16,7.16-16,16-7.16,16-16,16-16,7.16-16,16-7.16,16-16,16-16,7.16-16,16-7.16,16-16,16-16-7.16-16-16,7.16-16,16-16,16-7.16,16-16,7.16-16,16-16,16-7.16,16-16,7.16-16,16-16,16-7.16,16-16,7.16-16,16-16,16-7.16,16-16-7.16-16-16-16-16-7.16-16-16-7.16-16-16-16-16-7.16-16-16-7.16-16-16-16-16-7.16-16-16-7.16-16-16-16-16-7.16-16-16,7.16-16,16-16,16,7.16,16,16,7.16,16,16,16,16,7.16,16,16,7.16,16,16,16,16,7.16,16,16,7.16,16,16,16,16,7.16,16,16,7.16,16,16,16,16,7.16,16,16Z"/>
      <path class="cls-2" d="M1194.22,146.24c0,8.84-7.16,16-16,16s-16,7.16-16,16-7.16,16-16,16-16,7.16-16,16-7.16,16-16,16-16,7.16-16,16-7.16,16-16,16-16,7.16-16,16-7.16,16-16,16-16-7.16-16-16,7.16-16,16-16,16-7.16,16-16,7.16-16,16-16,16-7.16,16-16,7.16-16,16-16,16-7.16,16-16,7.16-16,16-16,16-7.16,16-16-7.16-16-16-16-16-7.16-16-16-7.16-16-16-16-16-7.16-16-16-7.16-16-16-16-16-7.16-16-16-7.16-16-16-16-16-7.16-16-16,7.16-16,16-16,16,7.16,16,16,7.16,16,16,16,16,7.16,16,16,7.16,16,16,16,16,7.16,16,16,7.16,16,16,16,16,7.16,16,16,7.16,16,16,16,16,7.16,16,16Z"/>
      <path class="cls-2" d="M1194.22,114.24c0,8.84-7.16,16-16,16s-16-7.16-16-16-7.16-16-16-16-16-7.16-16-16-7.16-16-16-16-16-7.16-16-16-7.16-16-16-16-16-7.16-16-16,7.16-16,16-16,16,7.16,16,16,7.16,16,16,16,16,7.16,16,16,7.16,16,16,16,16,7.16,16,16,7.16,16,16,16,16,7.16,16,16Z"/>
      <path class="cls-2" d="M1194.22,82.24c0,8.84-7.16,16-16,16s-16-7.16-16-16-7.16-16-16-16-16-7.16-16-16-7.16-16-16-16-16-7.16-16-16,7.16-16,16-16,16,7.16,16,16,7.16,16,16,16,16,7.16,16,16,7.16,16,16,16,16,7.16,16,16Z"/>
      <path class="cls-2" d="M1194.22,50.24c0,8.84-7.16,16-16,16s-16-7.16-16-16-7.16-16-16-16-16-7.16-16-16,7.16-16,16-16,16,7.16,16,16,7.16,16,16,16,16,7.16,16,16Z"/>
      <circle class="cls-2" cx="1178.22" cy="18.24" r="16"/>
      <path class="cls-2" d="M554.22,146.24c0,8.84-7.16,16-16,16s-16,7.16-16,16-7.16,16-16,16-16,7.16-16,16-7.16,16-16,16-16,7.16-16,16-7.16,16-16,16-16,7.16-16,16-7.16,16-16,16-16-7.16-16-16,7.16-16,16-16,16-7.16,16-16,7.16-16,16-16,16-7.16,16-16,7.16-16,16-16,16-7.16,16-16,7.16-16,16-16,16-7.16,16-16-7.16-16-16-16-16-7.16-16-16-7.16-16-16-16-16-7.16-16-16-7.16-16-16-16-16-7.16-16-16-7.16-16-16-16-16-7.16-16-16,7.16-16,16-16,16,7.16,16,16,7.16,16,16,16,16,7.16,16,16,7.16,16,16,16,16,7.16,16,16,7.16,16,16,16,16,7.16,16,16,7.16,16,16,16,16,7.16,16,16Z"/>
      <path class="cls-2" d="M938.22,146.24c0,8.84-7.16,16-16,16s-16,7.16-16,16-7.16,16-16,16-16,7.16-16,16-7.16,16-16,16-16,7.16-16,16-7.16,16-16,16-16,7.16-16,16-7.16,16-16,16-16-7.16-16-16,7.16-16,16-16,16-7.16,16-16,7.16-16,16-16,16-7.16,16-16,7.16-16,16-16,16-7.16,16-16,7.16-16,16-16,16-7.16,16-16-7.16-16-16-16-16-7.16-16-16-7.16-16-16-16-16-7.16-16-16-7.16-16-16-16-16-7.16-16-16-7.16-16-16-16-16-7.16-16-16,7.16-16,16-16,16,7.16,16,16,7.16,16,16,16,16,7.16,16,16,7.16,16,16,16,16,7.16,16,16,7.16,16,16,16,16,7.16,16,16,7.16,16,16,16,16,7.16,16,16Z"/>
      <path class="cls-2" d="M586.22,146.24c0,8.84-7.16,16-16,16s-16,7.16-16,16-7.16,16-16,16-16,7.16-16,16-7.16,16-16,16-16,7.16-16,16-7.16,16-16,16-16,7.16-16,16-7.16,16-16,16-16-7.16-16-16,7.16-16,16-16,16-7.16,16-16,7.16-16,16-16,16-7.16,16-16,7.16-16,16-16,16-7.16,16-16,7.16-16,16-16,16-7.16,16-16-7.16-16-16-16-16-7.16-16-16-7.16-16-16-16-16-7.16-16-16-7.16-16-16-16-16-7.16-16-16-7.16-16-16-16-16-7.16-16-16,7.16-16,16-16,16,7.16,16,16,7.16,16,16,16,16,7.16,16,16,7.16,16,16,16,16,7.16,16,16,7.16,16,16,16,16,7.16,16,16,7.16,16,16,16,16,7.16,16,16Z"/>
      <path class="cls-2" d="M618.22,146.24c0,8.84-7.16,16-16,16s-16,7.16-16,16-7.16,16-16,16-16,7.16-16,16-7.16,16-16,16-16,7.16-16,16-7.16,16-16,16-16,7.16-16,16-7.16,16-16,16-16-7.16-16-16,7.16-16,16-16,16-7.16,16-16,7.16-16,16-16,16-7.16,16-16,7.16-16,16-16,16-7.16,16-16,7.16-16,16-16,16-7.16,16-16-7.16-16-16-16-16-7.16-16-16-7.16-16-16-16-16-7.16-16-16-7.16-16-16-16-16-7.16-16-16-7.16-16-16-16-16-7.16-16-16,7.16-16,16-16,16,7.16,16,16,7.16,16,16,16,16,7.16,16,16,7.16,16,16,16,16,7.16,16,16,7.16,16,16,16,16,7.16,16,16,7.16,16,16,16,16,7.16,16,16Z"/>
      <path class="cls-2" d="M650.22,146.24c0,8.84-7.16,16-16,16s-16,7.16-16,16-7.16,16-16,16-16,7.16-16,16-7.16,16-16,16-16,7.16-16,16-7.16,16-16,16-16,7.16-16,16-7.16,16-16,16-16-7.16-16-16,7.16-16,16-16,16-7.16,16-16,7.16-16,16-16,16-7.16,16-16,7.16-16,16-16,16-7.16,16-16,7.16-16,16-16,16-7.16,16-16-7.16-16-16-16-16-7.16-16-16-7.16-16-16-16-16-7.16-16-16-7.16-16-16-16-16-7.16-16-16-7.16-16-16-16-16-7.16-16-16,7.16-16,16-16,16,7.16,16,16,7.16,16,16,16,16,7.16,16,16,7.16,16,16,16,16,7.16,16,16,7.16,16,16,16,16,7.16,16,16,7.16,16,16,16,16,7.16,16,16Z"/>
      <path class="cls-2" d="M682.22,146.24c0,8.84-7.16,16-16,16s-16,7.16-16,16-7.16,16-16,16-16,7.16-16,16-7.16,16-16,16-16,7.16-16,16-7.16,16-16,16-16,7.16-16,16-7.16,16-16,16-16-7.16-16-16,7.16-16,16-16,16-7.16,16-16,7.16-16,16-16,16-7.16,16-16,7.16-16,16-16,16-7.16,16-16,7.16-16,16-16,16-7.16,16-16-7.16-16-16-16-16-7.16-16-16-7.16-16-16-16-16-7.16-16-16-7.16-16-16-16-16-7.16-16-16-7.16-16-16-16-16-7.16-16-16,7.16-16,16-16,16,7.16,16,16,7.16,16,16,16,16,7.16,16,16,7.16,16,16,16,16,7.16,16,16,7.16,16,16,16,16,7.16,16,16,7.16,16,16,16,16,7.16,16,16Z"/>
      <path class="cls-2" d="M746.22,146.24c0,8.84-7.16,16-16,16s-16,7.16-16,16-7.16,16-16,16-16,7.16-16,16-7.16,16-16,16-16,7.16-16,16-7.16,16-16,16-16,7.16-16,16-7.16,16-16,16-16-7.16-16-16,7.16-16,16-16,16-7.16,16-16,7.16-16,16-16,16-7.16,16-16,7.16-16,16-16,16-7.16,16-16,7.16-16,16-16,16-7.16,16-16-7.16-16-16-16-16-7.16-16-16-7.16-16-16-16-16-7.16-16-16-7.16-16-16-16-16-7.16-16-16-7.16-16-16-16-16-7.16-16-16,7.16-16,16-16,16,7.16,16,16,7.16,16,16,16,16,7.16,16,16,7.16,16,16,16,16,7.16,16,16,7.16,16,16,16,16,7.16,16,16,7.16,16,16,16,16,7.16,16,16Z"/>
      <path class="cls-2" d="M810.22,146.24c0,8.84-7.16,16-16,16s-16,7.16-16,16-7.16,16-16,16-16,7.16-16,16-7.16,16-16,16-16,7.16-16,16-7.16,16-16,16-16,7.16-16,16-7.16,16-16,16-16-7.16-16-16,7.16-16,16-16,16-7.16,16-16,7.16-16,16-16,16-7.16,16-16,7.16-16,16-16,16-7.16,16-16,7.16-16,16-16,16-7.16,16-16-7.16-16-16-16-16-7.16-16-16-7.16-16-16-16-16-7.16-16-16-7.16-16-16-16-16-7.16-16-16-7.16-16-16-16-16-7.16-16-16,7.16-16,16-16,16,7.16,16,16,7.16,16,16,16,16,7.16,16,16,7.16,16,16,16,16,7.16,16,16,7.16,16,16,16,16,7.16,16,16,7.16,16,16,16,16,7.16,16,16Z"/>
      <path class="cls-2" d="M1002.22,146.24c0,8.84-7.16,16-16,16s-16,7.16-16,16-7.16,16-16,16-16,7.16-16,16-7.16,16-16,16-16,7.16-16,16-7.16,16-16,16-16,7.16-16,16-7.16,16-16,16-16-7.16-16-16,7.16-16,16-16,16-7.16,16-16,7.16-16,16-16,16-7.16,16-16,7.16-16,16-16,16-7.16,16-16,7.16-16,16-16,16-7.16,16-16-7.16-16-16-16-16-7.16-16-16-7.16-16-16-16-16-7.16-16-16-7.16-16-16-16-16-7.16-16-16-7.16-16-16-16-16-7.16-16-16,7.16-16,16-16,16,7.16,16,16,7.16,16,16,16,16,7.16,16,16,7.16,16,16,16,16,7.16,16,16,7.16,16,16,16,16,7.16,16,16,7.16,16,16,16,16,7.16,16,16Z"/>
      <path class="cls-2" d="M1034.22,146.24c0,8.84-7.16,16-16,16s-16,7.16-16,16-7.16,16-16,16-16,7.16-16,16-7.16,16-16,16-16,7.16-16,16-7.16,16-16,16-16,7.16-16,16-7.16,16-16,16-16-7.16-16-16,7.16-16,16-16,16-7.16,16-16,7.16-16,16-16,16-7.16,16-16,7.16-16,16-16,16-7.16,16-16,7.16-16,16-16,16-7.16,16-16-7.16-16-16-16-16-7.16-16-16-7.16-16-16-16-16-7.16-16-16-7.16-16-16-16-16-7.16-16-16-7.16-16-16-16-16-7.16-16-16,7.16-16,16-16,16,7.16,16,16,7.16,16,16,16,16,7.16,16,16,7.16,16,16,16,16,7.16,16,16,7.16,16,16,16,16,7.16,16,16,7.16,16,16,16,16,7.16,16,16Z"/>
      <path class="cls-2" d="M1098.22,146.24c0,8.84-7.16,16-16,16s-16,7.16-16,16-7.16,16-16,16-16,7.16-16,16-7.16,16-16,16-16,7.16-16,16-7.16,16-16,16-16,7.16-16,16-7.16,16-16,16-16-7.16-16-16,7.16-16,16-16,16-7.16,16-16,7.16-16,16-16,16-7.16,16-16,7.16-16,16-16,16-7.16,16-16,7.16-16,16-16,16-7.16,16-16-7.16-16-16-16-16-7.16-16-16-7.16-16-16-16-16-7.16-16-16-7.16-16-16-16-16-7.16-16-16-7.16-16-16-16-16-7.16-16-16,7.16-16,16-16,16,7.16,16,16,7.16,16,16,16,16,7.16,16,16,7.16,16,16,16,16,7.16,16,16,7.16,16,16,16,16,7.16,16,16,7.16,16,16,16,16,7.16,16,16Z"/>
      <path class="cls-2" d="M1130.22,146.24c0,8.84-7.16,16-16,16s-16,7.16-16,16-7.16,16-16,16-16,7.16-16,16-7.16,16-16,16-16,7.16-16,16-7.16,16-16,16-16,7.16-16,16-7.16,16-16,16-16-7.16-16-16,7.16-16,16-16,16-7.16,16-16,7.16-16,16-16,16-7.16,16-16,7.16-16,16-16,16-7.16,16-16,7.16-16,16-16,16-7.16,16-16-7.16-16-16-16-16-7.16-16-16-7.16-16-16-16-16-7.16-16-16-7.16-16-16-16-16-7.16-16-16-7.16-16-16-16-16-7.16-16-16,7.16-16,16-16,16,7.16,16,16,7.16,16,16,16,16,7.16,16,16,7.16,16,16,16,16,7.16,16,16,7.16,16,16,16,16,7.16,16,16,7.16,16,16,16,16,7.16,16,16Z"/>
      <path class="cls-2" d="M1162.22,146.24c0,8.84-7.16,16-16,16s-16,7.16-16,16-7.16,16-16,16-16,7.16-16,16-7.16,16-16,16-16,7.16-16,16-7.16,16-16,16-16,7.16-16,16-7.16,16-16,16-16-7.16-16-16,7.16-16,16-16,16-7.16,16-16,7.16-16,16-16,16-7.16,16-16,7.16-16,16-16,16-7.16,16-16,7.16-16,16-16,16-7.16,16-16-7.16-16-16-16-16-7.16-16-16-7.16-16-16-16-16-7.16-16-16-7.16-16-16-16-16-7.16-16-16-7.16-16-16-16-16-7.16-16-16,7.16-16,16-16,16,7.16,16,16,7.16,16,16,16,16,7.16,16,16,7.16,16,16,16,16,7.16,16,16,7.16,16,16,16,16,7.16,16,16,7.16,16,16,16,16,7.16,16,16Z"/>
      <path class="cls-2" d="M1194.22,178.24c0,8.84-7.16,16-16,16s-16,7.16-16,16-7.16,16-16,16-16,7.16-16,16-7.16,16-16,16-16,7.16-16,16-7.16,16-16,16-16-7.16-16-16,7.16-16,16-16,16-7.16,16-16,7.16-16,16-16,16-7.16,16-16,7.16-16,16-16,16-7.16,16-16,7.16-16,16-16,16,7.16,16,16Z"/>
      <path class="cls-2" d="M1194.22,210.24c0,8.84-7.16,16-16,16s-16,7.16-16,16-7.16,16-16,16-16,7.16-16,16-7.16,16-16,16-16-7.16-16-16,7.16-16,16-16,16-7.16,16-16,7.16-16,16-16,16-7.16,16-16,7.16-16,16-16,16,7.16,16,16Z"/>
      <path class="cls-2" d="M1194.22,242.24c0,8.84-7.16,16-16,16s-16,7.16-16,16-7.16,16-16,16-16-7.16-16-16,7.16-16,16-16,16-7.16,16-16,7.16-16,16-16,16,7.16,16,16Z"/>
      <circle class="cls-2" cx="1178.22" cy="274.24" r="16"/>
    </g>
  </g>
</svg>