<?xml version="1.0" encoding="UTF-8"?>
<svg id="Layer_2" data-name="Layer 2" xmlns="http://www.w3.org/2000/svg" viewBox="0 0 793.59 312.71">
  <defs>
    <style>
      .cls-1 {
        fill: #ed1c24;
      }

      .cls-1, .cls-2, .cls-3 {
        stroke-width: 0px;
      }

      .cls-4 {
        fill: none;
        stroke: #231f20;
        stroke-miterlimit: 2.61;
        stroke-width: 4.61px;
      }

      .cls-2 {
        fill: #fff;
      }

      .cls-3 {
        fill: #231f20;
      }
    </style>
  </defs>
  <g id="svg2">
    <path id="path103000" class="cls-2" d="M156.35,2.3c84.85,0,154.05,69.22,154.05,154.08s-69.21,154.03-154.05,154.03S2.3,241.21,2.3,156.38,71.51,2.3,156.35,2.3"/>
    <path id="path103004" class="cls-4" d="M156.35,2.3c84.85,0,154.05,69.22,154.05,154.08s-69.21,154.03-154.05,154.03S2.3,241.21,2.3,156.38,71.51,2.3,156.35,2.3Z"/>
    <path id="path103008" class="cls-3" d="M26.4,195.25c-5.93,3.35-8.34,10.41-5.41,16.85,4.08,9.01,13.47,11.37,21.66,7.71,8.21-3.65,12.99-11.7,9.03-20.23-3.01-6.49-9.5-9.42-16.75-7.15l1.77,4.89c4.36-1.45,8.98,0,10.96,4.46,2.75,6.15-2.11,10.75-7.61,13.21-5.52,2.46-11.92,1.66-14.65-4.52-1.87-4.18-.17-7.58,2.73-9.89l-1.72-5.33h0ZM11.26,175.51c1.09,9.31,9.7,14.65,18.55,13.24,8.86-1.39,15.48-7.55,14.19-16.94-1.27-9.34-8.95-13.19-17.81-12.68-8.96.55-16.03,6.98-14.93,16.38M15.79,174.78c-.76-6.75,4.58-9.79,10.56-10.42,6.05-.67,12.36,1.47,13.22,8.14.86,6.77-4.89,9.9-10.85,10.81-5.95.95-12.17-1.83-12.93-8.53M42.32,155.81l.21-4.99-23.82-2.15,24.65-6.18.45-4.51-22.78-13.57,24.59,4.76,1.26-4.89-31.67-6.24-1.5,7.36,23.06,13.68v.07s-25.95,5.74-25.95,5.74l-.37,8.43,31.87,2.48h0ZM48.42,120.38l1.88-5.18-30.08-11.2-1.88,5.19s30.08,11.18,30.08,11.18ZM26.54,100.88l4.67-8.89,22.91,14.24,2.58-4.87-22.79-14.22,4.91-8.94-3.98-2.46-12.72,23.12s4.43,2.01,4.43,2.01ZM62.32,91.78l14.6-17.23-3.31-3.42-11.12,13.38-7.23-6.38,9.91-12.1-3.12-3.12-10.31,12.12-6.29-5.7,11.1-12.66-3.4-3.6-14.73,17.46,23.89,21.23h0ZM94.04,61l4.67-2.91-16.88-27.2-4.66,2.91,16.86,27.2h0ZM103.04,55.58l4.61-2.22-9.32-21.3.14-.06,21.26,16.33,5.52-1.64-9.72-30.46-5.23,1.54,7.04,22.69h-.26s-21.58-16.84-21.58-16.84l-5.32,2.7,12.88,29.26h0ZM120.38,20.05l9.37-1.56,4.13,25.98,5.44-.87-4.13-26.04,9.77-1.74-.51-4.99-25.4,4.32,1.32,4.91h0ZM150.15,42.6l22.93.84.07-4.74-17.43-.75.3-9.62,15.84.36.06-4.48-15.83-.37.14-8.56,16.98.84.09-4.76-22.47-.94-.69,32.19h0ZM188.81,18.76l8.69,2.37c2.76.72,4.72,2.7,3.62,6.53-.92,3.18-2.9,4.27-6.23,3.35l-9.01-2.47s2.93-9.77,2.93-9.77ZM176.12,43.99l5.03,1.14,3.57-12.58,8.11,2.23c4.87,1.34,4.97,4.17,3.38,9.71-.44,1.49-.9,3.26-.46,4.81l5.55,2.28c-.81-1.56-.25-5.7.75-9.22,1.37-4.78-.57-6.89-2.35-7.66l.04-.09c1.06-.04,5.21-.37,6.85-6.18,1.47-5.12-.71-9.62-7.34-11.46l-14.53-4.03-8.61,31.06h0ZM203.54,52.55l4.84,2.27,10.8-20.33.12.07,1.71,27.91,4.54,3.36,17.18-26.93-4.39-3.45-12.76,19.92-1.64-28.49-5.36-2.63-15.05,28.29h0ZM256.16,57.56l.07.06h.02s-6.4,13.66-6.4,13.66l-6.7-6.98,13.01-6.74h0ZM226.83,66.79l4.44,3.72,7.95-4.17,8.84,8.98-3.86,8.73,3.66,4.53,14.23-32.81-4.28-4.11-30.98,15.13h0ZM266.49,68.27l5.19,7.56-22.34,14.97,2.98,4.61,22.37-14.95,5.65,8.25,4.09-2.35-14.18-21.02-3.77,2.93h0ZM257.99,104.88l2.32,4.98,29.04-13.72-2.33-4.97-29.02,13.71h0ZM297.62,117.86c-2.55-9-11.33-12.75-19.92-9.87-8.5,2.86-14.26,10.35-11.77,19.41,2.42,8.86,11,11.93,19.65,9.6,8.76-2.37,14.59-10.17,12.05-19.14M293.29,119.27c1.8,6.34-3.37,11.17-9.21,12.67-5.83,1.51-12.15.52-13.87-5.84-1.75-6.52,3.35-11.1,9.11-12.86,5.75-1.76,12.13-.45,13.97,6.03M269.7,143.99l.29,5.23,23.29-1.27v.14l-23.27,15.38-.29,5.83,31.69,2.67.55-5.94-23.79-1.59v-.34l24.04-15.54-.41-6.2-32.11,1.64h0ZM291.79,193.53v.07s-.04.06-.04.06l-15.03.35,2.73-9.22,12.33,8.74h0ZM269.32,171.81l-.82,5.64,7.36,4.77-3.57,12.05-8.7.55-1.98,5.47,34.54-2.35,1.62-5.6-28.45-20.52h0ZM260.57,202.81l-10.41,18.77,4.17,2.31,7.74-13.97,23.97,13.36,2.66-4.79-28.12-15.68"/>
    <path id="path103012" class="cls-3" d="M227.94,283.98l18.64-12.76-2.66-4.01-14.09,9.8-5.29-7.83,12.79-9.05-2.53-3.76-12.79,9.04-4.73-7.34,13.94-9.62-2.68-3.99-18.47,12.61,17.89,26.91h0Z"/>
    <path id="path103016" class="cls-3" d="M203.98,294.78l5.72-2.07-1.9-34.54-5.02,2.25,1.83,27.1-.09.05-16.7-21.7-5.36,1.59,21.51,27.33h0Z"/>
    <path id="path103020" class="cls-3" d="M163.25,302.32l22.43-2.7-.97-4.59-16.8,1.91-1.17-9.65,14.72-1.76-.89-4.42-14.56,1.75-1-8.69,16.27-1.66-.87-4.72-20.82,2.51,3.67,32.02h0Z"/>
    <path id="path103024" class="cls-3" d="M94.19,288.5l21.26,7.93,1.22-4.57-15.74-5.89,3.18-9.06,14.17,5.44,1.14-4.31-13.84-5.34,2.88-8.35,15.15,6.13,1.22-4.49-19.71-7.78-10.94,30.3h0Z"/>
    <path id="path103028" class="cls-3" d="M94.63,269.89l-11.2-7.09-2.35,3.41,7.28,4.64c-3.07,4.29-7.9,5.33-12.57,2.05-5.54-3.93-4.49-10.59-1.11-15.52,3.36-4.92,8.9-7.91,14.48-4.04,3.28,2.27,5.11,6.1,3.22,9.77l4.69,2.67c3.26-6.27.3-12.16-5.41-16.1-7.81-5.47-16.55-2.81-21.56,4.52-5.01,7.35-4.62,16.93,3.17,22.36,3.2,2.22,6.14,2.65,10.46,1.62l-.75,4.49,2.93,1.72,8.7-14.51"/>
    <path id="path103032" class="cls-3" d="M124.32,298.81l5.28,1.11,4.17-23.39.14.02,12.63,25.48,5.9.31,1.5-32.07-4.94-.14-.99,23.53-.09-.02-12.57-25.29-5.58-1.15-5.46,31.61h0Z"/>
    <path id="path103036" class="cls-4" d="M156.35,50.63c58.23,0,105.76,47.52,105.76,105.74s-47.52,105.74-105.76,105.74-105.73-47.52-105.73-105.74,47.47-105.74,105.73-105.74Z"/>
    <path id="path103040" class="cls-1" d="M133.94,133.95v-53.86h44.84v53.86h53.85v44.86h-53.85v53.84h-44.84v-53.84h-53.86v-44.86h53.86,0Z"/>
    <path id="path103042" class="cls-3" d="M333.59,86.51h19.29v145.12h-19.29V86.51h0Z"/>
    <path id="path103046" class="cls-3" d="M487.27,130.21c-4.06-20.51-20.51-30.88-40.61-30.88-34.5,0-49.12,28.45-49.12,58.73,0,33.13,14.62,60.78,49.32,60.78,25.38,0,40-17.89,41.83-41.87h19.27c-3.65,36.18-26.18,58.13-62.71,58.13-45.08,0-67-33.33-67-75.6s23.95-76.43,68.61-76.43c30.26,0,55.22,16.26,59.69,47.14h-19.29"/>
    <path id="path103050" class="cls-3" d="M551.21,153.39v-50.61h47.91c18.06,0,25.78,10.56,25.78,24.78,0,21.15-15.43,25.82-33.49,25.82h-40.19ZM531.91,231.64h19.3v-61.99h47.1c18.67,0,22.12,11.99,24.15,26.22,2.83,14.22-.2,29.88,5.28,35.77h21.52c-8.13-9.96-7.31-25.81-8.54-40.03-1.41-14.24-4.87-26.63-21.71-29.88v-.41c17.45-4.86,25.17-19.3,25.17-36.79,0-23.16-16.85-38.01-44.05-38.01h-68.22v145.13"/>
    <path id="path103054" class="cls-3" d="M772.89,130.21c-4.06-20.51-20.51-30.88-40.61-30.88-34.52,0-49.13,28.45-49.13,58.73,0,33.13,14.62,60.78,49.33,60.78,25.38,0,40-17.89,41.82-41.87h19.29c-3.66,36.18-26.18,58.13-62.73,58.13-45.06,0-66.98-33.33-66.98-75.6s23.95-76.43,68.61-76.43c30.26,0,55.22,16.26,59.69,47.14h-19.29"/>
  </g>
</svg>