<?xml version="1.0" encoding="UTF-8"?>
<svg id="Layer_2" data-name="Layer 2" xmlns="http://www.w3.org/2000/svg" viewBox="0 0 101 101">
  <defs>
    <style>
      .cls-1 {
        fill: #2ae8b2;
        stroke: #fff;
        stroke-miterlimit: 10;
        stroke-width: 5px;
      }
    </style>
  </defs>
  <g id="Layer_1-2" data-name="Layer 1">
    <circle class="cls-1" cx="50.5" cy="18.5" r="16"/>
    <path class="cls-1" d="M98.5,82.5c0,8.84-7.16,16-16,16s-16-7.16-16-16-7.16-16-16-16-16,7.16-16,16-7.16,16-16,16-16-7.16-16-16,7.16-16,16-16,16-7.16,16-16-7.16-16-16-16S2.5,27.34,2.5,18.5,9.66,2.5,18.5,2.5s16,7.16,16,16,7.16,16,16,16,16-7.16,16-16,7.16-16,16-16,16,7.16,16,16-7.16,16-16,16-16,7.16-16,16,7.16,16,16,16,16,7.16,16,16Z"/>
    <circle class="cls-1" cx="50.5" cy="82.5" r="16"/>
    <circle class="cls-1" cx="18.5" cy="50.5" r="16"/>
    <circle class="cls-1" cx="82.5" cy="50.5" r="16"/>
  </g>
</svg>