<?xml version="1.0" encoding="UTF-8"?>
<svg id="Layer_2" data-name="Layer 2" xmlns="http://www.w3.org/2000/svg" viewBox="0 0 171.89 171.89">
  <defs>
    <style>
      .cls-1 {
        fill: transparent;
        stroke: black;
        stroke-miterlimit: 10;
        stroke-width: 2px;
      }
    </style>
  </defs>
  <g id="Layer_1-2" data-name="Layer 1">
    <g>
      <path class="cls-1" d="M37.95,151.44c0-8.84,7.17-16,16-16s16-7.16,16-16,7.17-16,16-16,16,7.16,16,16,7.17,16,16,16,16,7.16,16,16c0,8.84-7.16,16-16,16s-16-7.16-16-16c0-8.84-7.16-16-16-16s-16,7.16-16,16c0,8.84-7.16,16-16,16s-16-7.16-16-16Z"/>
      <path class="cls-1" d="M5.69,98.32c6.25-6.25,16.38-6.24,22.63,0,6.25,6.25,16.38,6.25,22.63,0s16.38-6.24,22.63,0c6.25,6.25,6.25,16.38,0,22.63s-6.24,16.38,0,22.63c6.25,6.25,6.25,16.38,0,22.63s-16.38,6.25-22.63,0c-6.24-6.24-6.25-16.38,0-22.63s6.25-16.38,0-22.63c-6.24-6.24-16.38-6.25-22.63,0s-16.38,6.25-22.63,0c-6.24-6.24-6.25-16.38,0-22.63Z"/>
      <path class="cls-1" d="M20.44,37.94c8.84,0,16,7.17,16,16s7.16,16,16,16,16,7.17,16,16-7.16,16-16,16-16,7.17-16,16-7.16,16-16,16-16-7.16-16-16,7.16-16,16-16,16-7.16,16-16-7.16-16-16-16-16-7.16-16-16,7.16-16,16-16Z"/>
      <path class="cls-1" d="M73.57,5.69c6.25,6.25,6.24,16.38,0,22.63-6.25,6.25-6.25,16.38,0,22.63s6.24,16.38,0,22.63c-6.25,6.25-16.38,6.25-22.63,0s-16.38-6.24-22.63,0c-6.25,6.25-16.38,6.25-22.63,0s-6.25-16.38,0-22.63c6.24-6.24,16.38-6.25,22.63,0s16.38,6.25,22.63,0c6.24-6.24,6.25-16.38,0-22.63s-6.25-16.38,0-22.63c6.24-6.24,16.38-6.25,22.63,0Z"/>
      <path class="cls-1" d="M133.94,20.44c0,8.84-7.17,16-16,16s-16,7.16-16,16-7.17,16-16,16-16-7.16-16-16-7.17-16-16-16-16-7.16-16-16,7.16-16,16-16,16,7.16,16,16,7.16,16,16,16,16-7.16,16-16,7.16-16,16-16,16,7.16,16,16Z"/>
      <path class="cls-1" d="M166.2,73.57c-6.25,6.25-16.38,6.24-22.63,0-6.25-6.25-16.38-6.25-22.63,0s-16.38,6.24-22.63,0c-6.25-6.25-6.25-16.38,0-22.63s6.24-16.38,0-22.63c-6.25-6.25-6.25-16.38,0-22.63s16.38-6.25,22.63,0c6.24,6.24,6.25,16.38,0,22.63s-6.25,16.38,0,22.63c6.24,6.24,16.38,6.25,22.63,0s16.38-6.25,22.63,0c6.24,6.24,6.25,16.38,0,22.63Z"/>
      <path class="cls-1" d="M151.44,133.94c-8.84,0-16-7.17-16-16s-7.16-16-16-16-16-7.17-16-16,7.16-16,16-16,16-7.17,16-16,7.16-16,16-16,16,7.16,16,16-7.16,16-16,16-16,7.16-16,16,7.16,16,16,16,16,7.16,16,16-7.16,16-16,16Z"/>
      <path class="cls-1" d="M98.32,166.2c-6.25-6.25-6.24-16.38,0-22.63,6.25-6.25,6.25-16.38,0-22.63s-6.24-16.38,0-22.63c6.25-6.25,16.38-6.25,22.63,0s16.38,6.24,22.63,0c6.25-6.25,16.38-6.25,22.63,0s6.25,16.38,0,22.63c-6.24,6.24-16.38,6.25-22.63,0s-16.38-6.25-22.63,0c-6.24,6.24-6.25,16.38,0,22.63s6.25,16.38,0,22.63c-6.24,6.24-16.38,6.25-22.63,0Z"/>
    </g>
  </g>
</svg>