<?xml version="1.0" encoding="UTF-8"?>
<svg id="Layer_2" data-name="Layer 2" xmlns="http://www.w3.org/2000/svg" viewBox="0 0 127.52 127.51">
  <defs>
    <style>
      .cls-1 {
        fill: #2ae8b2;
        stroke: #fff;
        stroke-miterlimit: 10;
        stroke-width: 5px;
      }
    </style>
  </defs>
  <g id="Layer_1-2" data-name="Layer 1">
    <path class="cls-1" d="M120.33,75.07c-6.25,6.24-16.38,6.24-22.63,0-6.25-6.25-16.38-6.25-22.63,0-6.24,6.24-16.38,6.24-22.62,0-6.25-6.25-16.38-6.25-22.63,0-6.25,6.24-16.38,6.24-22.63,0-6.25-6.25-6.25-16.38,0-22.63s16.38-6.25,22.63,0,16.38,6.25,22.63,0c6.24-6.25,16.38-6.25,22.62,0,6.25,6.25,16.38,6.25,22.63,0s16.38-6.25,22.63,0,6.25,16.38,0,22.63Z"/>
    <path class="cls-1" d="M97.7,52.44c-6.25,6.25-16.38,6.25-22.63,0-6.24-6.25-16.38-6.25-22.62,0-6.25,6.25-16.38,6.25-22.63,0s-6.25-16.38,0-22.63,16.38-6.25,22.63,0c6.24,6.25,16.38,6.25,22.62,0,6.25-6.25,16.38-6.25,22.63,0s6.25,16.38,0,22.63Z"/>
    <path class="cls-1" d="M75.07,29.81c-6.24,6.25-16.38,6.25-22.62,0-6.25-6.25-6.25-16.38,0-22.63,6.24-6.24,16.38-6.24,22.62,0,6.25,6.25,6.25,16.38,0,22.63Z"/>
    <path class="cls-1" d="M97.7,97.69c-6.25,6.25-16.38,6.25-22.63,0-6.24-6.24-16.38-6.24-22.62,0-6.25,6.25-16.38,6.25-22.63,0-6.25-6.24-6.25-16.38,0-22.62,6.25-6.25,16.38-6.25,22.63,0,6.24,6.24,16.38,6.24,22.62,0,6.25-6.25,16.38-6.25,22.63,0,6.25,6.24,6.25,16.38,0,22.62Z"/>
    <path class="cls-1" d="M75.07,120.32c-6.24,6.25-16.38,6.25-22.62,0-6.25-6.25-6.25-16.38,0-22.63,6.24-6.24,16.38-6.24,22.62,0,6.25,6.25,6.25,16.38,0,22.63Z"/>
  </g>
</svg>