<?xml version="1.0" encoding="UTF-8" standalone="no"?>
<!DOCTYPE svg PUBLIC "-//W3C//DTD SVG 1.1//EN" "http://www.w3.org/Graphics/SVG/1.1/DTD/svg11.dtd">
<svg width="100%" height="100%" viewBox="0 0 1000 1000" version="1.1" xmlns="http://www.w3.org/2000/svg" xmlns:xlink="http://www.w3.org/1999/xlink" xml:space="preserve" xmlns:serif="http://www.serif.com/" style="fill-rule:evenodd;clip-rule:evenodd;stroke-linejoin:round;stroke-miterlimit:2;">
    <path d="M235.6,611.2L124.9,611.2L124.9,383.5L239.5,383.5C282,383.5 307.7,409.2 307.7,442.2C307.7,456.3 303.1,469.3 294.3,479.1C313.3,491.1 325.2,509.7 325.2,533.6C325.2,578.5 291.4,611.2 235.6,611.2ZM190.5,459.2L218.7,459.2C225,459.2 240.5,457.9 240.5,441.4C240.5,429.4 232.9,422.4 218.7,422.4L190.5,422.4L190.5,459.2ZM190.5,559.1L224.8,559.1C242.1,558.1 252.3,550.6 252.3,536.6C252.3,522.6 242.1,514.2 224.8,514.2L190.5,514.2L190.5,559.1Z" style="fill:rgb(37,38,106);fill-rule:nonzero;"/>
    <path d="M606.7,611.2C581.1,611.2 560.3,590.4 560.3,564.8L560.3,429.9C560.3,404.3 581.1,383.5 606.7,383.5C632.3,383.5 653.1,404.3 653.1,429.9L653.1,564.8C653.1,590.4 632.3,611.2 606.7,611.2Z" style="fill:rgb(37,38,106);fill-rule:nonzero;"/>
    <path d="M674.1,383.5L875.1,383.5L875.1,465.7L821,465.7L821,611.2L728.2,611.2L728.2,465.7L674.1,465.7L674.1,383.5Z" style="fill:rgb(37,38,106);fill-rule:nonzero;"/>
    <path d="M431,477.211C430.71,477.335 430.443,477.506 430.2,477.7C421.1,486 403.8,505 403.5,532.1C403.2,556 416.3,573.8 425.8,583.7L411.9,611.2L314.9,611.2L431,379.986L431,477.211ZM434,379.593L550.1,611.2L453.1,611.2L439.5,583.8C449,573.9 462.2,556.1 461.9,532.1C461.6,505 444.3,486 435.2,477.7C434.849,477.349 434.449,477.146 434,477.056L434,379.593Z" style="fill:rgb(37,38,106);"/>
    <path d="M653,494L560.3,494L560.3,425C560.3,400.3 580.4,380.2 605.1,380.2L608.2,380.2C632.9,380.2 653,400.3 653,425L653,494Z" style="fill:rgb(86,115,184);fill-rule:nonzero;"/>
</svg>
