<?xml version="1.0" encoding="utf-8"?>
<!-- Generator: Adobe Illustrator 26.4.1, SVG Export Plug-In . SVG Version: 6.00 Build 0)  -->
<svg version="1.1" id="Layer_1" xmlns="http://www.w3.org/2000/svg" xmlns:xlink="http://www.w3.org/1999/xlink" x="0px" y="0px"
	 viewBox="0 0 1000 1000" style="enable-background:new 0 0 1000 1000;" xml:space="preserve">
<style type="text/css">
	.st0{fill-rule:evenodd;clip-rule:evenodd;}
	.st1{fill:#FFFFFF;stroke:#000000;stroke-width:1.9798;stroke-miterlimit:10;}
</style>
<path d="M249,603.6H138.3V375.9h114.6c42.5,0,68.2,25.7,68.2,58.7c0,14.1-4.6,27.1-13.4,36.9c19,12,30.9,30.6,30.9,54.5
	C338.6,570.9,304.8,603.6,249,603.6z M203.9,451.6h28.2c6.3,0,21.8-1.3,21.8-17.8c0-12-7.6-19-21.8-19h-28.2V451.6z M203.9,551.5
	h34.3c17.3-1,27.5-8.5,27.5-22.5s-10.2-22.4-27.5-22.4h-34.3V551.5z"/>
<path d="M620.1,603.6c-25.6,0-46.4-20.8-46.4-46.4V422.3c0-25.6,20.8-46.4,46.4-46.4c25.6,0,46.4,20.8,46.4,46.4v134.9
	C666.5,582.8,645.7,603.6,620.1,603.6z"/>
<path d="M687.5,375.9h201v82.2h-54.1v145.5h-92.8V458.1h-54.1V375.9z"/>
<path class="st0" d="M444.4,469.6c-0.3,0.1-0.6,0.3-0.8,0.5c-9.1,8.3-26.4,27.3-26.7,54.4c-0.3,23.9,12.8,41.7,22.3,51.6l-13.9,27.5
	h-97l116.1-231.2V469.6z M447.4,372l116.1,231.6h-97l-13.6-27.4c9.5-9.9,22.7-27.7,22.4-51.7c-0.3-27.1-17.6-46.1-26.7-54.4
	c-0.4-0.4-0.8-0.6-1.2-0.6V372z"/>
<path class="st1" d="M665.5,486.4h-90.8v-69c0-24.7,19.7-44.8,43.9-44.8h3c24.2,0,43.9,20.1,43.9,44.8V486.4z"/>
</svg>
