<?xml version="1.0" encoding="utf-8"?>
<!-- Generator: Adobe Illustrator 28.3.0, SVG Export Plug-In . SVG Version: 6.00 Build 0)  -->
<svg version="1.1" id="Calque_1" xmlns="http://www.w3.org/2000/svg" xmlns:xlink="http://www.w3.org/1999/xlink" x="0px" y="0px"
	 viewBox="0 0 1000 1000" style="enable-background:new 0 0 1000 1000;" xml:space="preserve">
<g>
	<path d="M658.1,435.9c-35.3,0-64,28.6-64,64l0,0c0,52.3-42.4,94.6-94.6,94.6c-52.2,0-94.5-42.4-94.5-94.6l0,0c0,0,0,0,0,0
		c0-35.3-28.6-64-64-64s-64,28.6-64,64s28.6,64,64,64l0,0c52.2,0,94.5,42.4,94.5,94.6l0,0c0,0,0,0,0,0c0,35.3,28.6,64,64,64
		s64-28.7,64-64l0,0c0-52.3,42.4-94.6,94.7-94.6l0,0l0,0c35.3,0,64-28.7,64-64S693.4,435.9,658.1,435.9L658.1,435.9z"/>
	<path d="M341,405.7C341,405.7,341.1,405.7,341,405.7L341,405.7c52.1,0,94.4,42.2,94.4,94.3l0,0c0,35.3,28.7,63.9,64,63.9
		s64-28.6,64-63.9l0,0c0-52.2,42.4-94.5,94.6-94.5l0,0c0,0,0,0,0,0c35.3,0,64-28.6,64-64s-28.7-64-64-64s-64,28.6-64,63.9l0,0
		c0,52.2-42.4,94.5-94.6,94.5l0,0c0,0,0,0,0,0s0,0,0,0l0,0c-52.1,0-94.4-42.2-94.4-94.3l0,0c0-35.3-28.7-63.9-64-63.9
		s-64,28.6-64,64S305.7,405.7,341,405.7z"/>
	<circle cx="500.7" cy="345.8" r="64"/>
</g>
</svg>
