<?xml version="1.0" encoding="UTF-8"?>
<svg id="Calque_1" class="fill-current" data-name="Calque 1" xmlns="http://www.w3.org/2000/svg" viewBox="0 0 762.1 286.37">
  <path class="cls-1" d="M698.12,158.4s-.03,0-.05,0h0c-52.21.04-94.57-42.25-94.6-94.46h0c-.03-35.32-28.66-63.94-63.99-63.94s-63.96,28.62-63.98,63.94h0c-.04,52.1-42.31,94.3-94.4,94.26h0s-.03,0-.05,0c-.69,0-1.35.08-2.03.1-51.27-1.05-92.55-42.83-92.59-94.36h0c-.03-35.32-28.66-63.94-63.99-63.94s-63.96,28.62-63.98,63.94h0c-.04,52.1-42.31,94.3-94.4,94.26h0s-.03,0-.05,0c-35.34,0-63.99,28.65-63.99,63.99s28.65,63.99,63.99,63.99,63.96-28.62,63.99-63.94h0c.04-52.1,42.31-94.3,94.4-94.26h0s.03,0,.05,0,.03,0,.05,0h0c52.06-.04,94.31,42.02,94.58,94.03,0,.06,0,.12,0,.18,0,4.43.45,8.76,1.31,12.94,5.91,29.23,31.73,51.25,62.71,51.25,35.34,0,63.99-28.65,63.99-63.99,0-.13-.02-.26-.02-.39.17-51.99,42.37-94.07,94.39-94.03h0s.03,0,.05,0,.03,0,.05,0h0c52.21-.04,94.57,42.25,94.6,94.46h0c.03,35.32,28.66,63.94,63.98,63.94s63.99-28.65,63.99-63.99-28.65-63.99-63.99-63.99Z"/>
</svg>