<?xml version="1.0" encoding="UTF-8"?>
<svg id="Calque_1" data-name="Calque 1" xmlns="http://www.w3.org/2000/svg" viewBox="0 0 445.24 445.04">
  <defs>
    <style>
      .cls-1 {
        fill: #fff;
        stroke-width: 0px;
      }
    </style>
  </defs>
  <path class="cls-1" d="M109.32,335.72c-11.59-11.63-27.62-18.84-45.33-18.84-35.34,0-63.99,28.65-63.99,63.99,0,17.72,7.2,33.75,18.84,45.33,11.59,11.63,27.62,18.84,45.33,18.84,35.34,0,63.99-28.65,63.99-63.99,0-17.72-7.2-33.75-18.84-45.33Z"/>
  <path class="cls-1" d="M424.12,335.72c-11.59-11.63-27.62-18.84-45.33-18.84-35.34,0-63.99,28.65-63.99,63.99,0,17.72,7.2,33.75,18.84,45.33,11.59,11.63,27.62,18.84,45.33,18.84,35.34,0,63.99-28.65,63.99-63.99,0-17.72-7.2-33.75-18.84-45.33Z"/>
  <path class="cls-1" d="M64.17,127.97s.03,0,.05,0h0c52.21-.04,94.57,42.25,94.6,94.46h0c.03,35.32,28.66,63.94,63.98,63.94s63.96-28.62,63.99-63.94h0c.04-52.1,42.31-94.3,94.4-94.26h0s.03,0,.05,0c35.34,0,63.99-28.65,63.99-63.99S416.59.2,381.25.2s-63.96,28.62-63.98,63.94h0c-.04,52.1-42.31,94.3-94.4,94.26h0s-.03,0-.05,0-.03,0-.05,0h0c-52.21.04-94.57-42.25-94.6-94.46h0c-.03-35.32-28.66-63.94-63.98-63.94S.18,28.65.18,63.99s28.65,63.99,63.99,63.99Z"/>
  <path class="cls-1" d="M381.25,158.4c-35.34,0-63.99,28.65-63.99,63.99,0,.02,0,.03,0,.04h0c.03,52.21-42.26,94.57-94.48,94.62-52.26,0-94.62-42.37-94.63-94.63h0c0-35.34-28.65-63.98-63.99-63.98S.18,187.09.18,222.43s28.65,63.99,63.99,63.99c0,0,0,0,0,0h0c52.27,0,94.64,42.36,94.65,94.63h0c0,35.34,28.65,63.98,63.99,63.98s63.99-28.65,63.99-63.99c0-.02,0-.03,0-.04h0c-.03-52.22,42.27-94.58,94.49-94.62h0c35.32-.02,63.95-28.66,63.95-63.99s-28.65-63.99-63.99-63.99Z"/>
</svg>