<?xml version="1.0" encoding="UTF-8"?>
<svg id="Calque_1" data-name="Calque 1" xmlns="http://www.w3.org/2000/svg" viewBox="0 0 762.11 286.38">
  <defs>
    <style>
      .cls-1 {
        fill: #fff;
        stroke-width: 0px;
      }
    </style>
  </defs>
  <path class="cls-1" d="M698.1,158.4h-.05c-52.21.04-94.57-42.25-94.6-94.46h0c-.03-35.32-28.66-63.94-63.99-63.94s-63.96,28.62-63.98,63.94h0c-.04,52.1-42.31,94.3-94.4,94.26h-.05c-.69,0-1.35.08-2.03.1-51.27-1.05-92.55-42.83-92.59-94.36h0C286.38,28.62,257.75,0,222.42,0s-63.96,28.62-63.98,63.94h0c-.04,52.1-42.31,94.3-94.4,94.26h-.05c-35.34,0-63.99,28.65-63.99,63.99s28.65,63.99,63.99,63.99,63.96-28.62,63.99-63.94h0c.04-52.1,42.31-94.3,94.4-94.26h.1c52.06-.04,94.31,42.02,94.58,94.03v.18c0,4.43.45,8.76,1.31,12.94,5.91,29.23,31.73,51.25,62.71,51.25,35.34,0,63.99-28.65,63.99-63.99,0-.13-.02-.26-.02-.39.17-51.99,42.37-94.07,94.39-94.03h.1c52.21-.04,94.57,42.25,94.6,94.46h0c.03,35.32,28.66,63.94,63.98,63.94s63.99-28.65,63.99-63.99-28.65-63.99-63.99-63.99h-.02Z"/>
</svg>