<?xml version="1.0" encoding="UTF-8"?>
<svg id="Layer_2" data-name="Layer 2" xmlns="http://www.w3.org/2000/svg" viewBox="0 0 445.2 445">
  <defs>
    <style>
      .cls-1 {
        fill: #000;
        stroke-width: 0px;
      }
    </style>
  </defs>
  <g id="Calque_1" data-name="Calque 1">
    <g>
      <path class="cls-1" d="M109.3,335.7c-11.6-11.6-27.6-18.8-45.3-18.8-35.3,0-64,28.7-64,64,0,17.7,7.2,33.8,18.8,45.3,11.6,11.6,27.6,18.8,45.3,18.8,35.3,0,64-28.7,64-64,0-17.7-7.2-33.7-18.8-45.3h0Z"/>
      <path class="cls-1" d="M424.1,335.7c-11.6-11.6-27.6-18.8-45.3-18.8-35.3,0-64,28.7-64,64,0,17.7,7.2,33.8,18.8,45.3,11.6,11.6,27.6,18.8,45.3,18.8,35.3,0,64-28.7,64-64,0-17.7-7.2-33.7-18.8-45.3h0Z"/>
      <path class="cls-1" d="M64.1,128h0c52.3,0,94.6,42.2,94.6,94.5h0c0,35.3,28.7,63.9,64,63.9s64-28.6,64-63.9h0c0-52.1,42.3-94.3,94.4-94.3h0c35.3,0,64-28.7,64-64S416.4.2,381.1.2s-64,28.6-64,63.9h0c0,52.1-42.3,94.3-94.4,94.3h0c-52.2,0-94.6-42.2-94.6-94.5h0C128.1,28.6,99.4,0,64.1,0S.1,28.6.1,64s28.7,64,64,64h0Z"/>
      <path class="cls-1" d="M381.2,158.4c-35.3,0-64,28.6-64,64h0c0,52.2-42.3,94.6-94.5,94.6s-94.6-42.4-94.6-94.6h0c0-35.3-28.6-64-64-64S.1,187,.1,222.4s28.6,64,64,64h0c52.3,0,94.6,42.4,94.6,94.6h0c0,35.3,28.6,64,64,64s64-28.7,64-64h0c0-52.2,42.3-94.6,94.5-94.6h0c35.3,0,64-28.7,64-64s-28.7-64-64-64h0Z"/>
    </g>
  </g>
</svg>