<?xml version="1.0" encoding="UTF-8"?>
<svg id="Calque_1" data-name="Calque 1" xmlns="http://www.w3.org/2000/svg" viewBox="0 0 1000 1000">
  <defs>
    <style>
      .cls-1 {
        fill: #fff;
        stroke-width: 0px;
      }
    </style>
  </defs>
  <path class="cls-1" d="M818.59,421.97s-.03,0-.05,0h0c-52.21.04-94.57-42.25-94.6-94.46h0c-.03-35.32-28.66-63.94-63.99-63.94s-63.96,28.62-63.98,63.94h0c-.04,52.1-42.31,94.3-94.4,94.26h0s-.03,0-.05,0c-.69,0-1.35.08-2.03.1-51.27-1.05-92.55-42.83-92.59-94.36h0c-.03-35.32-28.66-63.94-63.99-63.94s-63.96,28.62-63.98,63.94h0c-.04,52.1-42.31,94.3-94.4,94.26h0s-.03,0-.05,0c-35.34,0-63.99,28.65-63.99,63.99s28.65,63.99,63.99,63.99,63.96-28.62,63.99-63.94h0c.04-52.1,42.31-94.3,94.4-94.26h0s.03,0,.05,0,.03,0,.05,0h0c52.06-.04,94.31,42.02,94.58,94.03,0,.06,0,.12,0,.18,0,4.43.45,8.76,1.31,12.94,5.91,29.23,31.73,51.25,62.71,51.25,35.34,0,63.99-28.65,63.99-63.99,0-.13-.02-.26-.02-.39.17-51.99,42.37-94.07,94.39-94.03h0s.03,0,.05,0,.03,0,.05,0h0c52.21-.04,94.57,42.25,94.6,94.46h0c.03,35.32,28.66,63.94,63.98,63.94s63.99-28.65,63.99-63.99-28.65-63.99-63.99-63.99Z"/>
  <g>
    <path class="cls-1" d="M220.53,637.02h19.18v16.59c5.01-10.02,17.62-19.18,32.48-19.18,16.07,0,27.12,8.81,29.72,20.9,4.15-10.19,17.62-20.9,34.73-20.9,21.94,0,34.03,12.1,34.03,35.24v62.37h-19.52v-59.78c0-15.2-6.22-21.43-17.97-21.43-10.71,0-22.11,8.3-27.82,22.29v58.91h-19.52v-59.78c0-15.2-6.22-21.43-17.97-21.43-10.71,0-22.11,8.3-27.82,22.29v58.91h-19.52v-95.02Z"/>
    <path class="cls-1" d="M387.08,684.53c0-30.23,19.87-50.1,47.85-50.1s47.86,19.87,47.86,50.1-19.87,50.11-47.86,50.11-47.85-19.87-47.85-50.11ZM434.93,718.74c15.03,0,27.82-12.78,27.82-34.21s-12.78-34.2-27.82-34.2-27.81,12.78-27.81,34.2,12.78,34.21,27.81,34.21Z"/>
    <path class="cls-1" d="M496.61,684.53c0-30.23,19.87-50.1,47.85-50.1s47.86,19.87,47.86,50.1-19.87,50.11-47.86,50.11-47.85-19.87-47.85-50.11ZM544.46,718.74c15.03,0,27.82-12.78,27.82-34.21s-12.78-34.2-27.82-34.2-27.81,12.78-27.81,34.2,12.78,34.21,27.81,34.21Z"/>
    <path class="cls-1" d="M595.77,637.02h21.25l25.05,76.36h.35l25.05-76.36h21.25l-35.07,95.02h-22.8l-35.07-95.02Z"/>
    <path class="cls-1" d="M692.18,684.02c0-29.72,19.18-49.59,48.2-49.59s45.61,18.66,45.61,48.55c0,1.39,0,2.25-.17,5.01h-73.77c1.21,18.83,12.61,30.75,29.37,30.75,12.61,0,22.46-6.91,24.19-16.76h19.52c-3.46,19.69-20.39,32.65-43.71,32.65-29.2,0-49.24-20.21-49.24-50.62ZM766.98,673.65c-1.73-14.86-11.75-23.84-26.61-23.84s-26.78,9.85-28.33,23.84h54.94Z"/>
  </g>
</svg>