<?xml version="1.0" encoding="UTF-8"?>
<svg id="Calque_1" data-name="Calque 1" xmlns="http://www.w3.org/2000/svg" viewBox="0 0 1000 1000">
  <defs>
    <style>
      .cls-1 {
        fill: #000;
        stroke-width: 0px;
      }
    </style>
  </defs>
  <g>
    <path class="cls-1" d="M658.11,296.81c-35.34,0-63.98,28.64-63.99,63.98h0c0,52.26-42.37,94.62-94.63,94.63-52.21-.04-94.51-42.4-94.48-94.62h0s0-.03,0-.04c0-35.34-28.65-63.99-63.99-63.99s-63.99,28.65-63.99,63.99,28.63,63.96,63.95,63.99h0c52.22.04,94.53,42.4,94.49,94.62h0s0,.03,0,.04c0,35.34,28.65,63.99,63.99,63.99s63.98-28.65,63.99-63.98h0c0-52.27,42.38-94.63,94.65-94.63h0s0,0,0,0c35.34,0,63.99-28.65,63.99-63.99s-28.65-63.99-63.99-63.99Z"/>
    <path class="cls-1" d="M341.03,266.55s.03,0,.05,0h0c52.1-.04,94.36,42.16,94.4,94.26h0c.03,35.32,28.66,63.94,63.98,63.94s63.96-28.62,63.98-63.94h0c.04-52.21,42.4-94.5,94.6-94.46h0s.03,0,.05,0c35.34,0,63.99-28.65,63.99-63.99s-28.65-63.99-63.99-63.99-63.96,28.62-63.98,63.94h0c-.04,52.21-42.4,94.5-94.6,94.46h0s-.03,0-.05,0-.03,0-.05,0h0c-52.1.04-94.36-42.16-94.4-94.26h0c-.03-35.32-28.66-63.94-63.98-63.94s-63.99,28.65-63.99,63.99,28.65,63.99,63.99,63.99Z"/>
    <circle class="cls-1" cx="500.72" cy="206.71" r="63.99" transform="translate(-26.65 82.88) rotate(-9.22)"/>
  </g>
  <g>
    <path class="cls-1" d="M124.5,669.88h19.18v16.59c5.01-10.02,17.62-19.18,32.48-19.18,16.07,0,27.13,8.81,29.72,20.9,4.15-10.19,17.62-20.9,34.72-20.9,21.95,0,34.04,12.1,34.04,35.24v62.37h-19.52v-59.78c0-15.2-6.22-21.43-17.97-21.43-10.72,0-22.11,8.3-27.81,22.29v58.91h-19.52v-59.78c0-15.2-6.22-21.43-17.97-21.43-10.72,0-22.11,8.3-27.82,22.29v58.91h-19.52v-95.02Z"/>
    <path class="cls-1" d="M291.04,716.87c0-29.72,19.18-49.59,48.2-49.59s45.61,18.66,45.61,48.55c0,1.39,0,2.25-.18,5.01h-73.77c1.21,18.83,12.61,30.75,29.37,30.75,12.61,0,22.46-6.91,24.18-16.76h19.53c-3.46,19.69-20.39,32.65-43.71,32.65-29.2,0-49.24-20.21-49.24-50.62ZM365.85,706.5c-1.73-14.86-11.74-23.84-26.61-23.84s-26.78,9.85-28.33,23.84h54.94Z"/>
    <path class="cls-1" d="M398.67,717.38c0-31.1,19-50.1,43.36-50.1,13.65,0,24.19,5.01,30.41,14.34h.35v-47.17h19.52v130.44h-19.18v-12.62h-.35c-6.05,10.02-16.76,15.21-30.75,15.21-24.19,0-43.36-19.18-43.36-50.11ZM445.84,751.59c14.34,0,27.3-12.78,27.3-34.38s-12.78-34.04-27.3-34.04-27.12,12.61-27.12,34.2,12.61,34.21,27.12,34.21Z"/>
    <path class="cls-1" d="M513.04,634.46h19.52v19.87h-19.52v-19.87ZM513.22,669.88h19.52v95.02h-19.52v-95.02Z"/>
    <path class="cls-1" d="M560.04,739.85v-54.77h-14.34v-15.2h14.34v-23.33h19.52v23.33h21.77v15.2h-21.77v51.83c0,9.68,3.97,13.65,13.3,13.65,2.77,0,6.05-.18,9.5-.52v15.72c-4.83.87-10.36,1.04-13.82,1.04-19.35,0-28.51-9.15-28.51-26.95Z"/>
    <path class="cls-1" d="M617.05,669.88h19.18v16.06h.51c6.39-11.05,17.62-17.96,31.1-17.96,1.9,0,5.18.17,7.78.69v18.31c-2.42-.35-5.53-.51-7.78-.51-15.2,0-26.61,7.6-31.27,20.56v57.88h-19.52v-95.02Z"/>
    <path class="cls-1" d="M678.03,717.38c0-30.23,19.87-50.1,47.86-50.1s47.85,19.87,47.85,50.1-19.87,50.11-47.85,50.11-47.86-19.87-47.86-50.11ZM725.89,751.59c15.03,0,27.81-12.78,27.81-34.21s-12.78-34.2-27.81-34.2-27.81,12.78-27.81,34.2,12.78,34.21,27.81,34.21Z"/>
    <path class="cls-1" d="M790.68,669.88h19.18v16.93c5.01-10.2,17.62-19.53,32.48-19.53,21.08,0,33.17,12.1,33.17,35.24v62.37h-19.52v-59.78c0-15.2-6.22-21.43-17.97-21.43-10.71,0-22.11,8.3-27.81,22.29v58.91h-19.52v-95.02Z"/>
    <path class="cls-1" d="M445.28,808.59h-30.79v-7.82h40.79v7.25c-15.48,18.7-21.28,31.52-24.42,53.6h-10.47c2.58-18.78,11.12-36.91,24.91-53.03Z"/>
    <path class="cls-1" d="M462.53,800.77h21.52c13.62,0,22,6.05,22,15.72,0,6.85-3.95,11.84-10.24,13.38,7.34,1.37,11.85,6.94,11.85,14.91,0,10.64-8.22,16.85-22.17,16.85h-22.97v-60.85ZM484.86,826.56c7.74,0,12.01-3.22,12.01-9.03s-4.36-9.1-12.01-9.1h-13.06v18.13h13.06ZM485.5,853.97c8.46,0,12.98-3.55,12.98-10.15s-4.75-9.92-14.03-9.92h-12.65v20.07h13.7Z"/>
    <path class="cls-1" d="M531.76,800.77h10.49l17.09,51.1,16.85-51.1h10.47l-22,60.85h-10.49l-22.41-60.85Z"/>
  </g>
</svg>