<?xml version="1.0" encoding="UTF-8"?>
<svg id="Calque_1" data-name="Calque 1" xmlns="http://www.w3.org/2000/svg" viewBox="0 0 1000 1000">
  <defs>
    <style>
      .cls-1 {
        fill: #000;
        stroke-width: 0px;
      }
    </style>
  </defs>
  <g>
    <path class="cls-1" d="M658.11,455.12s-.03,0-.05,0h0c-52.21.04-94.57-42.25-94.6-94.46h0c-.03-35.32-28.66-63.94-63.99-63.94s-63.96,28.62-63.98,63.94h0c-.04,52.1-42.31,94.3-94.4,94.26h0s-.03,0-.05,0c-35.34,0-63.99,28.65-63.99,63.99s28.65,63.99,63.99,63.99,63.96-28.62,63.99-63.94h0c.04-52.1,42.31-94.3,94.4-94.26h0s.03,0,.05,0,.03,0,.05,0h0c52.21-.04,94.57,42.25,94.6,94.46h0c.03,35.32,28.66,63.94,63.98,63.94s63.99-28.65,63.99-63.99-28.65-63.99-63.99-63.99Z"/>
    <path class="cls-1" d="M341.03,424.7c35.34,0,63.99-28.65,63.99-63.99,0-.02,0-.03,0-.04h0c-.03-52.21,42.26-94.57,94.48-94.62,52.26,0,94.62,42.37,94.63,94.63h0c0,35.34,28.65,63.98,63.99,63.98s63.99-28.65,63.99-63.99-28.65-63.99-63.99-63.99c0,0,0,0,0,0h0c-52.27,0-94.64-42.36-94.65-94.63h0c0-35.34-28.65-63.98-63.99-63.98s-63.99,28.65-63.99,63.99c0,.02,0,.03,0,.04h0c.03,52.22-42.27,94.58-94.49,94.62h0c-35.32.02-63.95,28.66-63.95,63.99s28.65,63.99,63.99,63.99Z"/>
  </g>
  <g>
    <path class="cls-1" d="M124.5,670.18h19.18v16.59c5.01-10.02,17.62-19.18,32.48-19.18,16.07,0,27.12,8.81,29.72,20.9,4.15-10.19,17.62-20.9,34.73-20.9,21.94,0,34.03,12.1,34.03,35.24v62.37h-19.52v-59.78c0-15.2-6.22-21.43-17.97-21.43-10.71,0-22.11,8.3-27.82,22.29v58.91h-19.52v-59.78c0-15.2-6.22-21.43-17.97-21.43-10.71,0-22.11,8.3-27.82,22.29v58.91h-19.52v-95.02Z"/>
    <path class="cls-1" d="M291.04,717.17c0-29.72,19.18-49.59,48.2-49.59s45.61,18.66,45.61,48.55c0,1.39,0,2.25-.17,5.01h-73.77c1.21,18.83,12.61,30.75,29.37,30.75,12.61,0,22.46-6.91,24.19-16.76h19.52c-3.46,19.69-20.39,32.65-43.71,32.65-29.2,0-49.24-20.21-49.24-50.62ZM365.85,706.8c-1.73-14.86-11.75-23.84-26.61-23.84s-26.78,9.85-28.33,23.84h54.94Z"/>
    <path class="cls-1" d="M398.67,717.68c0-31.1,19-50.1,43.36-50.1,13.65,0,24.19,5.01,30.41,14.34h.35v-47.17h19.52v130.44h-19.18v-12.62h-.34c-6.05,10.02-16.76,15.21-30.75,15.21-24.19,0-43.36-19.18-43.36-50.11ZM445.84,751.9c14.34,0,27.3-12.78,27.3-34.38s-12.78-34.04-27.3-34.04-27.12,12.61-27.12,34.2,12.61,34.21,27.12,34.21Z"/>
    <path class="cls-1" d="M513.04,634.76h19.52v19.87h-19.52v-19.87ZM513.21,670.18h19.52v95.02h-19.52v-95.02Z"/>
    <path class="cls-1" d="M560.03,740.15v-54.77h-14.34v-15.2h14.34v-23.33h19.52v23.33h21.77v15.2h-21.77v51.83c0,9.68,3.97,13.65,13.3,13.65,2.76,0,6.05-.18,9.5-.52v15.72c-4.84.87-10.36,1.04-13.82,1.04-19.35,0-28.51-9.15-28.51-26.95Z"/>
    <path class="cls-1" d="M617.05,670.18h19.18v16.06h.52c6.39-11.05,17.62-17.96,31.1-17.96,1.9,0,5.18.17,7.77.69v18.31c-2.42-.35-5.53-.51-7.77-.51-15.21,0-26.61,7.6-31.27,20.56v57.88h-19.52v-95.02Z"/>
    <path class="cls-1" d="M678.03,717.68c0-30.23,19.87-50.1,47.86-50.1s47.85,19.87,47.85,50.1-19.87,50.11-47.85,50.11-47.86-19.87-47.86-50.11ZM725.89,751.9c15.03,0,27.81-12.78,27.81-34.21s-12.78-34.2-27.81-34.2-27.82,12.78-27.82,34.2,12.78,34.21,27.82,34.21Z"/>
    <path class="cls-1" d="M790.68,670.18h19.18v16.93c5.01-10.2,17.62-19.53,32.48-19.53,21.08,0,33.17,12.1,33.17,35.24v62.37h-19.52v-59.78c0-15.2-6.22-21.43-17.97-21.43-10.71,0-22.11,8.3-27.81,22.29v58.91h-19.52v-95.02Z"/>
    <path class="cls-1" d="M482.96,808.89h-30.79v-7.82h40.79v7.25c-15.48,18.7-21.28,31.52-24.42,53.6h-10.48c2.58-18.78,11.12-36.91,24.91-53.03Z"/>
    <path class="cls-1" d="M500.21,801.07h21.52c13.62,0,22.01,6.05,22.01,15.72,0,6.85-3.95,11.84-10.24,13.38,7.34,1.37,11.85,6.94,11.85,14.91,0,10.64-8.22,16.85-22.17,16.85h-22.97v-60.85ZM522.54,826.86c7.74,0,12.01-3.22,12.01-9.03s-4.35-9.1-12.01-9.1h-13.06v18.13h13.06ZM523.18,854.27c8.46,0,12.98-3.55,12.98-10.15s-4.75-9.92-14.02-9.92h-12.65v20.07h13.7Z"/>
  </g>
</svg>