<?xml version="1.0" encoding="UTF-8"?>
<svg id="Layer_2" data-name="Layer 2" xmlns="http://www.w3.org/2000/svg" viewBox="0 0 241 241">
  <defs>
    <style>
      .cls-1 {
        fill: #000;
        stroke: #000;
        stroke-miterlimit: 10;
      }

      .cls-2 {
        fill: #fff;
        stroke-width: 0px;
      }
    </style>
  </defs>
  <g id="Calque_1" data-name="Calque 1">
    <g>
      <circle class="cls-1" cx="120.5" cy="120.5" r="120"/>
      <g>
        <path class="cls-2" d="M163.22,103.21c-9.51,0-17.25,7.71-17.25,17.26h0c0,14.1-11.43,25.51-25.5,25.51s-25.47-11.43-25.47-25.51h0c0-9.52-7.71-17.26-17.25-17.26s-17.25,7.71-17.25,17.26,7.71,17.26,17.25,17.26h0c14.07,0,25.47,11.43,25.47,25.51h0c0,9.52,7.71,17.26,17.25,17.26s17.25-7.74,17.25-17.26h0c0-14.1,11.43-25.51,25.53-25.51h0c9.51,0,17.25-7.74,17.25-17.26s-7.76-17.26-17.28-17.26h0Z"/>
        <path class="cls-2" d="M77.75,95.07s.03,0,0,0h0c14.04,0,25.44,11.38,25.44,25.43h0c0,9.52,7.74,17.23,17.25,17.23s17.25-7.71,17.25-17.23h0c0-14.08,11.43-25.48,25.5-25.48h0c9.51,0,17.25-7.71,17.25-17.26s-7.74-17.26-17.25-17.26-17.25,7.71-17.25,17.23h0c0,14.08-11.43,25.48-25.5,25.48h0c-14.04,0-25.44-11.38-25.44-25.43h0c0-9.52-7.74-17.23-17.25-17.23s-17.25,7.71-17.25,17.26,7.74,17.26,17.25,17.26Z"/>
        <ellipse class="cls-2" cx="120.8" cy="78.92" rx="17.25" ry="17.26"/>
      </g>
    </g>
  </g>
</svg>