<?xml version="1.0" encoding="UTF-8"?>
<svg id="Layer_2" data-name="Layer 2" xmlns="http://www.w3.org/2000/svg" viewBox="0 0 751 133.04">
  <defs>
    <style>
      .cls-1 {
        fill: #000;
        stroke-width: 0px;
      }
    </style>
  </defs>
  <g id="Calque_1" data-name="Calque 1">
    <path class="cls-1" d="M0,35.42h19.18v16.59c5.01-10.02,17.62-19.18,32.48-19.18,16.07,0,27.12,8.81,29.72,20.9,4.15-10.19,17.62-20.9,34.73-20.9,21.94,0,34.03,12.1,34.03,35.24v62.37h-19.52v-59.78c0-15.2-6.22-21.43-17.97-21.43-10.71,0-22.11,8.3-27.82,22.29v58.91h-19.52v-59.78c0-15.2-6.22-21.43-17.97-21.43-10.71,0-22.11,8.3-27.82,22.29v58.91H0V35.4v.02Z"/>
    <path class="cls-1" d="M166.54,82.42c0-29.72,19.18-49.59,48.2-49.59s45.61,18.66,45.61,48.55c0,1.39,0,2.25-.17,5.01h-73.77c1.21,18.83,12.61,30.75,29.37,30.75,12.61,0,22.46-6.91,24.19-16.76h19.52c-3.46,19.69-20.39,32.65-43.71,32.65-29.2,0-49.24-20.21-49.24-50.62h0ZM241.35,72.05c-1.73-14.86-11.75-23.84-26.61-23.84s-26.78,9.85-28.33,23.84h54.94Z"/>
    <path class="cls-1" d="M274.17,82.93c0-31.1,19-50.1,43.36-50.1,13.65,0,24.19,5.01,30.41,14.34h.35V0h19.52v130.44h-19.18v-12.62h-.34c-6.05,10.02-16.76,15.21-30.75,15.21-24.19,0-43.36-19.18-43.36-50.11h-.01ZM321.34,117.14c14.34,0,27.3-12.78,27.3-34.38s-12.78-34.04-27.3-34.04-27.12,12.61-27.12,34.2,12.61,34.21,27.12,34.21h0Z"/>
    <path class="cls-1" d="M388.54,0h19.52v19.87h-19.52V0ZM388.71,35.42h19.52v95.02h-19.52V35.42Z"/>
    <path class="cls-1" d="M435.53,105.39v-54.77h-14.34v-15.2h14.34V12.09h19.52v23.33h21.77v15.2h-21.77v51.83c0,9.68,3.97,13.65,13.3,13.65,2.76,0,6.05-.18,9.5-.52v15.72c-4.84.87-10.36,1.04-13.82,1.04-19.35,0-28.51-9.15-28.51-26.95h.01Z"/>
    <path class="cls-1" d="M492.55,35.42h19.18v16.06h.52c6.39-11.05,17.62-17.96,31.1-17.96,1.9,0,5.18.17,7.77.69v18.31c-2.42-.35-5.53-.51-7.77-.51-15.21,0-26.61,7.6-31.27,20.56v57.88h-19.52V35.43h0Z"/>
    <path class="cls-1" d="M553.53,82.93c0-30.23,19.87-50.1,47.85-50.1s47.86,19.87,47.86,50.1-19.87,50.11-47.86,50.11-47.85-19.87-47.85-50.11ZM601.38,117.14c15.03,0,27.82-12.78,27.82-34.21s-12.78-34.2-27.82-34.2-27.81,12.78-27.81,34.2,12.78,34.21,27.81,34.21Z"/>
    <path class="cls-1" d="M666.17,35.42h19.18v16.93c5.01-10.2,17.62-19.53,32.48-19.53,21.08,0,33.17,12.1,33.17,35.24v62.37h-19.52v-59.78c0-15.2-6.22-21.43-17.97-21.43-10.71,0-22.11,8.3-27.82,22.29v58.91h-19.52V35.4v.02Z"/>
  </g>
</svg>