<?xml version="1.0" encoding="UTF-8"?>
<svg id="Calque_1" data-name="Calque 1" xmlns="http://www.w3.org/2000/svg" version="1.1" viewBox="0 0 1000 1000">
  <defs>
    <style>
      .cls-1 {
        fill: #6c5ce7;
        stroke-width: 0px;
      }
    </style>
  </defs>
  <path class="cls-1" d="M658.5,594.5h0c-52.3,0-94.6-42.2-94.7-94.5h0c0-35.3-28.7-63.9-64-63.9s-64,28.6-64,63.9h0c0,52.1-42.3,94.3-94.4,94.3h0c-35.3,0-64,28.7-64,64s28.6,64,64,64,64-28.6,64-63.9h0c0-52.1,42.3-94.3,94.4-94.3h0c52.2,0,94.6,42.2,94.6,94.5h0c0,35.3,28.7,63.9,64,63.9s64-28.7,64-64-28.5-64-63.9-64h0Z"/>
  <path class="cls-1" d="M341.5,564.1c35.3,0,64-28.7,64-64h0c0-52.2,42.3-94.6,94.5-94.6s94.6,42.4,94.6,94.6h0c0,35.3,28.7,64,64,64s64-28.7,64-64-28.7-64-64-64h0c-52.3,0-94.6-42.4-94.7-94.6h0c0-35.3-28.7-64-64-64s-64,28.6-64,64h0c0,52.2-42.3,94.6-94.5,94.6h0c-35.3,0-64,28.7-64,64s28.7,64,64.1,64h0Z"/>
</svg>