<?xml version="1.0" encoding="UTF-8"?>
<svg id="Layer_2" data-name="Layer 2" xmlns="http://www.w3.org/2000/svg" viewBox="0 0 242 242">
  <defs>
    <style>
      .cls-1 {
        fill: #fff;
        stroke: #000;
        stroke-miterlimit: 10;
        stroke-width: 2px;
      }

      .cls-2 {
        fill: #000;
        stroke-width: 0px;
      }
    </style>
  </defs>
  <g id="Layer_1-2" data-name="Layer 1">
    <g>
      <circle class="cls-1" cx="121" cy="121" r="120"/>
      <g id="Calque_1" data-name="Calque 1">
        <g>
          <path class="cls-2" d="M90.46,151.51c-3.13-3.13-7.44-5.07-12.21-5.07-9.51,0-17.25,7.74-17.25,17.25,0,4.77,1.94,9.11,5.07,12.21,3.13,3.13,7.44,5.07,12.21,5.07,9.51,0,17.25-7.74,17.25-17.25,0-4.77-1.94-9.08-5.07-12.21h0Z"/>
          <path class="cls-2" d="M175.31,151.51c-3.13-3.13-7.44-5.07-12.21-5.07-9.51,0-17.25,7.74-17.25,17.25,0,4.77,1.94,9.11,5.07,12.21,3.13,3.13,7.44,5.07,12.21,5.07,9.51,0,17.25-7.74,17.25-17.25,0-4.77-1.94-9.08-5.07-12.21h0Z"/>
          <path class="cls-2" d="M78.28,95.53h0c14.1,0,25.5,11.37,25.5,25.47h0c0,9.51,7.74,17.22,17.25,17.22s17.25-7.71,17.25-17.22h0c0-14.04,11.4-25.42,25.44-25.42h0c9.51,0,17.25-7.74,17.25-17.25s-7.74-17.25-17.25-17.25-17.25,7.71-17.25,17.22h0c0,14.04-11.4,25.42-25.44,25.42h0c-14.07,0-25.5-11.37-25.5-25.47h0c0-9.51-7.74-17.22-17.25-17.22s-17.25,7.71-17.25,17.25,7.74,17.25,17.25,17.25h0Z"/>
          <path class="cls-2" d="M163.75,103.72c-9.51,0-17.25,7.71-17.25,17.25h0c0,14.07-11.4,25.5-25.47,25.5s-25.5-11.43-25.5-25.5h0c0-9.51-7.71-17.25-17.25-17.25s-17.25,7.71-17.25,17.25,7.71,17.25,17.25,17.25h0c14.1,0,25.5,11.43,25.5,25.5h0c0,9.51,7.71,17.25,17.25,17.25s17.25-7.74,17.25-17.25h0c0-14.07,11.4-25.5,25.47-25.5h0c9.51,0,17.25-7.74,17.25-17.25s-7.74-17.25-17.25-17.25h0Z"/>
        </g>
      </g>
    </g>
  </g>
</svg>