<svg width="1630" height="232" viewBox="0 0 1630 232" fill="none" xmlns="http://www.w3.org/2000/svg">
<g clip-path="url(#clip0_76_19)">
<path d="M0 61.5568H21.0954V84.3203C26.6102 70.5716 40.4803 58 56.8175 58C74.492 58 86.6516 70.0931 89.5127 86.6871C94.0739 72.7057 108.898 58 127.712 58C151.845 58 165.145 74.607 165.145 106.359V191.955H143.676V109.916C143.676 89.054 136.835 80.5048 123.908 80.5048C112.132 80.5048 99.5887 91.8995 93.3067 111.093V191.942H71.8382V109.903C71.8382 89.0411 64.9964 80.4919 52.0697 80.4919C40.2936 80.4919 27.7505 91.8865 21.4686 111.08V191.929H0V61.518V61.5439V61.5568Z" fill="#25266A"/>
<path d="M183.193 126.756C183.193 85.2644 205.045 58 235.822 58C266.6 58 288.462 85.2644 288.462 126.756C288.462 168.248 266.61 195.525 235.822 195.525C205.035 195.525 183.193 168.261 183.193 126.756ZM235.822 173.706C252.357 173.706 266.424 156.167 266.424 126.756C266.424 97.3446 252.367 79.8193 235.822 79.8193C219.278 79.8193 205.231 97.3575 205.231 126.756C205.231 156.155 219.288 173.706 235.822 173.706Z" fill="#25266A"/>
<path d="M303.669 126.756C303.669 85.2644 325.522 58 356.299 58C387.076 58 408.939 85.2644 408.939 126.756C408.939 168.248 387.087 195.525 356.299 195.525C325.511 195.525 303.669 168.261 303.669 126.756ZM356.299 173.706C372.833 173.706 386.9 156.167 386.9 126.756C386.9 97.3446 372.844 79.8193 356.299 79.8193C339.754 79.8193 325.708 97.3575 325.708 126.756C325.708 156.155 339.765 173.706 356.299 173.706Z" fill="#25266A"/>
<path d="M412.743 61.5566H436.119L463.673 166.346H464.056L491.61 61.5566H514.986L476.413 191.955H451.337L412.764 61.5566H412.753H412.743Z" fill="#25266A"/>
<path d="M518.79 126.058C518.79 85.2644 539.886 58 571.803 58C603.721 58 621.976 83.6089 621.976 124.635C621.976 126.536 621.976 127.726 621.789 131.516H540.642C541.969 157.357 554.512 173.719 572.944 173.719C586.814 173.719 597.646 164.238 599.554 150.722H621.022C617.218 177.741 598.59 195.525 572.944 195.525C540.829 195.525 518.78 167.795 518.78 126.058H518.79ZM601.057 111.817C599.15 91.4209 588.13 79.095 571.782 79.095C555.435 79.095 542.322 92.6108 540.622 111.817H601.057Z" fill="#25266A"/>
<path d="M989.7 231.607H879V3.90723H993.6C1036.1 3.90723 1061.8 29.6072 1061.8 62.6072C1061.8 76.7072 1057.2 89.7072 1048.4 99.5072C1067.4 111.507 1079.3 130.107 1079.3 154.007C1079.3 198.907 1045.5 231.607 989.7 231.607ZM944.6 79.6072H972.8C979.1 79.6072 994.6 78.3072 994.6 61.8072C994.6 49.8072 987 42.8072 972.8 42.8072H944.6V79.6072ZM944.6 179.507H978.9C996.2 178.507 1006.4 171.007 1006.4 157.007C1006.4 143.007 996.2 134.607 978.9 134.607H944.6V179.507Z" fill="#25266A"/>
<path d="M1360.8 231.607C1335.2 231.607 1314.4 210.807 1314.4 185.207V50.3072C1314.4 24.7072 1335.2 3.90723 1360.8 3.90723C1386.4 3.90723 1407.2 24.7072 1407.2 50.3072V185.207C1407.2 210.807 1386.4 231.607 1360.8 231.607Z" fill="#25266A"/>
<path d="M1428.2 3.90723H1629.2V86.1072H1575.1V231.607H1482.3V86.1072H1428.2V3.90723Z" fill="#25266A"/>
<path fill-rule="evenodd" clip-rule="evenodd" d="M1185.1 97.618C1184.81 97.742 1184.54 97.913 1184.3 98.107C1175.2 106.407 1157.9 125.407 1157.6 152.507C1157.3 176.407 1170.4 194.207 1179.9 204.107L1166 231.607H1069L1185.1 0.393005V97.618ZM1188.1 0L1304.2 231.607H1207.2L1193.6 204.207C1203.1 194.307 1216.3 176.507 1216 152.507C1215.7 125.407 1198.4 106.407 1189.3 98.107C1188.95 97.756 1188.55 97.553 1188.1 97.463V0Z" fill="#25266A"/>
<path d="M1407.1 114.407H1314.4V45.4069C1314.4 20.7069 1334.5 0.606934 1359.2 0.606934H1362.3C1387 0.606934 1407.1 20.7069 1407.1 45.4069V114.407Z" fill="#5673B8"/>
<path d="M693.409 104.773L690.909 120.136H648.409L650.909 104.773H693.409ZM702.045 142.636L704.591 127.136L753.636 65.9092H767L763.455 87.3637H755.5L724.591 126.136L724.5 126.864H779.682L777.091 142.636H702.045ZM744 159L747.545 137.864L749.045 131.091L759.818 65.9092H778.273L762.818 159H744ZM840.159 104.773L837.659 120.136H795.159L797.659 104.773H840.159Z" fill="#5673B8"/>
</g>
<defs>
<clipPath id="clip0_76_19">
<rect width="1630" height="232" fill="white"/>
</clipPath>
</defs>
</svg>
