<?xml version="1.0" encoding="UTF-8"?>
<svg id="Layer_2" data-name="Layer 2" xmlns="http://www.w3.org/2000/svg" viewBox="0 0 565.46 100.21">
  <defs>
    <style>
      .cls-1 {
        fill: #fff;
        stroke-width: 0px;
      }
    </style>
  </defs>
  <g id="Calque_1" data-name="Calque 1">
    <g>
      <path class="cls-1" d="M0,2.59h19.18v16.59C24.19,9.16,36.8,0,51.66,0,67.73,0,78.78,8.81,81.38,20.9,85.53,10.71,99,0,116.11,0,138.05,0,150.14,12.1,150.14,35.24v62.37h-19.52v-59.78c0-15.2-6.22-21.43-17.97-21.43-10.71,0-22.11,8.3-27.82,22.29v58.91h-19.52v-59.78c0-15.2-6.22-21.43-17.97-21.43-10.71,0-22.11,8.3-27.82,22.29v58.91H0V2.57v.02Z"/>
      <path class="cls-1" d="M166.55,50.1C166.55,19.87,186.42,0,214.4,0s47.86,19.87,47.86,50.1-19.87,50.11-47.86,50.11-47.85-19.87-47.85-50.11ZM214.4,84.31c15.03,0,27.82-12.78,27.82-34.21s-12.78-34.2-27.82-34.2-27.81,12.78-27.81,34.2,12.78,34.21,27.81,34.21Z"/>
      <path class="cls-1" d="M276.08,50.1C276.08,19.87,295.95,0,323.93,0s47.86,19.87,47.86,50.1-19.87,50.11-47.86,50.11-47.85-19.87-47.85-50.11h0ZM323.93,84.31c15.03,0,27.82-12.78,27.82-34.21s-12.78-34.2-27.82-34.2-27.81,12.78-27.81,34.2,12.78,34.21,27.81,34.21Z"/>
      <path class="cls-1" d="M375.24,2.59h21.25l25.05,76.36h.35L446.94,2.59h21.25l-35.07,95.02h-22.8L375.25,2.59h0Z"/>
      <path class="cls-1" d="M471.65,49.59c0-29.72,19.18-49.59,48.2-49.59s45.61,18.66,45.61,48.55c0,1.39,0,2.25-.17,5.01h-73.77c1.21,18.83,12.61,30.75,29.37,30.75,12.61,0,22.46-6.91,24.19-16.76h19.52c-3.46,19.69-20.39,32.65-43.71,32.65-29.2,0-49.24-20.21-49.24-50.62h0ZM546.45,39.22c-1.73-14.86-11.75-23.84-26.61-23.84s-26.78,9.85-28.33,23.84h54.94Z"/>
    </g>
  </g>
</svg>