<?xml version="1.0" encoding="UTF-8"?>
<svg id="Layer_2" data-name="Layer 2" xmlns="http://www.w3.org/2000/svg" viewBox="0 0 1146.99 187.89">
  <defs>
    <style>
      .cls-1 {
        fill: #000;
        stroke-width: 0px;
      }
    </style>
  </defs>
  <g id="Calque_1" data-name="Calque 1">
    <g>
      <path class="cls-1" d="M458,103.92h-.03c-34.25.03-62.04-27.72-62.06-61.97h0c-.02-23.17-18.8-41.95-41.98-41.95s-41.96,18.78-41.98,41.95h0c-.03,34.18-27.76,61.87-61.93,61.84h-.03c-.45,0-.89.05-1.33.07-33.64-.69-60.72-28.1-60.75-61.91h0c-.02-23.17-18.8-41.95-41.98-41.95s-41.96,18.78-41.98,41.95h0c-.03,34.18-27.76,61.87-61.93,61.84h-.03C18.8,103.79,0,122.59,0,145.77s18.8,41.98,41.98,41.98,41.96-18.78,41.98-41.95h0c.03-34.18,27.76-61.87,61.93-61.84h.07c34.16-.03,61.87,27.57,62.05,61.69v.12c0,2.91.3,5.75.86,8.49,3.88,19.18,20.82,33.62,41.14,33.62,23.19,0,41.98-18.8,41.98-41.98,0-.09-.01-.17-.01-.26.11-34.11,27.8-61.72,61.93-61.69h.07c34.25-.03,62.04,27.72,62.06,61.97h0c.02,23.17,18.8,41.95,41.98,41.95s41.98-18.8,41.98-41.98-18.8-41.98-41.98-41.98h-.01Z"/>
      <g>
        <path class="cls-1" d="M546.99,43.53h20.35v17.6c5.32-10.63,18.7-20.35,34.46-20.35,17.05,0,28.78,9.35,31.54,22.18,4.4-10.81,18.7-22.18,36.85-22.18,23.28,0,36.11,12.84,36.11,37.39v66.18h-20.71v-63.43c0-16.13-6.6-22.74-19.07-22.74-11.36,0-23.46,8.81-29.52,23.65v62.51h-20.71v-63.43c0-16.13-6.6-22.74-19.07-22.74-11.36,0-23.46,8.81-29.52,23.65v62.51h-20.71V43.5v.02Z"/>
        <path class="cls-1" d="M723.71,93.94c0-32.08,21.08-53.16,50.77-53.16s50.78,21.08,50.78,53.16-21.08,53.17-50.78,53.17-50.77-21.08-50.77-53.17ZM774.48,130.24c15.95,0,29.52-13.56,29.52-36.3s-13.56-36.29-29.52-36.29-29.51,13.56-29.51,36.29,13.56,36.3,29.51,36.3Z"/>
        <path class="cls-1" d="M839.93,93.94c0-32.08,21.08-53.16,50.77-53.16s50.78,21.08,50.78,53.16-21.08,53.17-50.78,53.17-50.77-21.08-50.77-53.17h0ZM890.7,130.24c15.95,0,29.52-13.56,29.52-36.3s-13.56-36.29-29.52-36.29-29.51,13.56-29.51,36.29,13.56,36.3,29.51,36.3Z"/>
        <path class="cls-1" d="M945.15,43.53h22.55l26.58,81.02h.37l26.58-81.02h22.55l-37.21,100.82h-24.19l-37.21-100.82h-.01Z"/>
        <path class="cls-1" d="M1047.45,93.4c0-31.54,20.35-52.62,51.14-52.62s48.4,19.8,48.4,51.52c0,1.47,0,2.39-.18,5.32h-78.28c1.28,19.98,13.38,32.63,31.16,32.63,13.38,0,23.83-7.33,25.67-17.78h20.71c-3.67,20.89-21.64,34.64-46.38,34.64-30.98,0-52.25-21.44-52.25-53.71h0ZM1126.81,82.39c-1.84-15.77-12.47-25.3-28.24-25.3s-28.42,10.45-30.06,25.3h58.3Z"/>
      </g>
    </g>
  </g>
</svg>